<?xml version="1.0" encoding="utf-8"?>
<!-- Generator: Adobe Illustrator 12.0.0, SVG Export Plug-In . SVG Version: 6.00 Build 51448)  -->
<!DOCTYPE svg PUBLIC "-//W3C//DTD SVG 1.1//EN" "http://www.w3.org/Graphics/SVG/1.1/DTD/svg11.dtd" [
	<!ENTITY ns_svg "http://www.w3.org/2000/svg">
	<!ENTITY ns_xlink "http://www.w3.org/1999/xlink">
]>
<svg  version="1.1" id="Layer_1" xmlns="&ns_svg;" xmlns:xlink="&ns_xlink;" width="24" height="22" viewBox="0 0 24 22"
	 style="overflow:visible;enable-background:new 0 0 24 22;" xml:space="preserve">
<g>
	<g>
		<g>
			<g>
				<g>
					<g>
						<path d="M1.5,10c-0.1,0-0.3,0.1-0.4,0.2C1,10.3,1,10.5,1,10.6l2,11C3,21.8,3.3,22,3.5,22h17c0.2,0,0.4-0.2,0.5-0.4l2-11
							c0-0.1,0-0.3-0.1-0.4c-0.1-0.1-0.2-0.2-0.4-0.2H1.5z M21.9,11c-0.2,1-1.7,9.3-1.8,10c-0.8,0-15.4,0-16.2,0
							c-0.1-0.7-1.6-9-1.8-10C3.2,11,20.8,11,21.9,11z"/>
					</g>
					<g id="Clip-4">
					</g>
					<g>
						<path d="M0.5,8C0.2,8,0,8.2,0,8.5v2C0,10.8,0.2,11,0.5,11h23c0.3,0,0.5-0.2,0.5-0.5v-2C24,8.2,23.8,8,23.5,8H0.5z M23,9
							c0,0.4,0,0.6,0,1c-0.9,0-21.1,0-22,0c0-0.4,0-0.6,0-1C1.9,9,22.1,9,23,9z"/>
					</g>
					<g>
						<path d="M9.1,0.1l-6,6c-0.2,0.2-0.2,0.5,0,0.7C3.3,7,3.6,7,3.8,6.8l6-6c0.2-0.2,0.2-0.5,0-0.7C9.6-0.1,9.3,0,9.1,0.1z"/>
					</g>
					<g>
						<path d="M14.1,0.1c-0.2,0.2-0.2,0.5,0,0.7l6,6c0.2,0.2,0.5,0.2,0.7,0c0.2-0.2,0.2-0.5,0-0.7l-6-6C14.7,0,14.3,0,14.1,0.1z"/>
					</g>
					<g>
						<path d="M13,12.5v6c0,0.3,0.2,0.5,0.5,0.5s0.5-0.2,0.5-0.5v-6c0-0.3-0.2-0.5-0.5-0.5S13,12.2,13,12.5z"/>
					</g>
					<g>
						<path d="M17,12.5v6c0,0.3,0.2,0.5,0.5,0.5s0.5-0.2,0.5-0.5v-6c0-0.3-0.2-0.5-0.5-0.5S17,12.2,17,12.5z"/>
					</g>
					<g>
						<path d="M10,12.5v6c0,0.3,0.2,0.5,0.5,0.5s0.5-0.2,0.5-0.5v-6c0-0.3-0.2-0.5-0.5-0.5S10,12.2,10,12.5z"/>
					</g>
					<g>
						<path d="M6,12.5v6C6,18.8,6.2,19,6.5,19S7,18.8,7,18.5v-6C7,12.2,6.8,12,6.5,12S6,12.2,6,12.5z"/>
					</g>
				</g>
			</g>
		</g>
	</g>
</g>
</svg>
