<?xml version="1.0" encoding="utf-8"?>
<!-- Generator: Adobe Illustrator 12.0.0, SVG Export Plug-In . SVG Version: 6.00 Build 51448)  -->
<!DOCTYPE svg PUBLIC "-//W3C//DTD SVG 1.1//EN" "http://www.w3.org/Graphics/SVG/1.1/DTD/svg11.dtd" [
	<!ENTITY ns_svg "http://www.w3.org/2000/svg">
	<!ENTITY ns_xlink "http://www.w3.org/1999/xlink">
]>
<svg  version="1.1" id="Layer_1" xmlns="&ns_svg;" xmlns:xlink="&ns_xlink;" width="22" height="24" viewBox="0 0 22 24"
	 style="overflow:visible;enable-background:new 0 0 22 24;" xml:space="preserve">
<path d="M21.9,17.5l-2.6-4.7c-0.1-0.2-0.3-0.3-0.4-0.3h-2.1v-1.6c0-2.2-1.8-4-3.9-4.1c1.1-0.7,1.8-1.8,1.8-3.2C14.7,1.6,13,0,11,0
	C9,0,7.3,1.6,7.3,3.7c0,1.4,0.8,2.6,1.9,3.2c-2,0.3-3.5,2-3.5,4v1.6H3.1c-0.2,0-0.4,0.1-0.4,0.3l-2.6,4.7C0,17.6,0,17.7,0,17.8v5.7
	C0,23.8,0.2,24,0.5,24h21c0.3,0,0.5-0.2,0.5-0.5v-5.7C22,17.7,21.9,17.6,21.9,17.5z M8.3,3.7c0-1.4,1.2-2.6,2.6-2.6
	c1.4,0,2.6,1.2,2.6,2.6c0,1.4-1.2,2.6-2.6,2.6C9.5,6.3,8.3,5.1,8.3,3.7z M6.7,10.9L6.7,10.9c0-1.7,1.4-3.1,3.1-3.1h0.7V11
	c0,0.3,0.2,0.5,0.5,0.5c0.3,0,0.5-0.2,0.5-0.5V7.9h1.1c1.7,0,3.1,1.4,3.1,3.1v1.6H6.7V10.9z M20.9,23H1V18l2.4-4.3h15.1l2.4,4.3V23z
	 M14.1,9.4h-1.6C12.3,9.4,12,9.7,12,10s0.2,0.5,0.5,0.5h1.6c0.3,0,0.5-0.2,0.5-0.5S14.4,9.4,14.1,9.4z M6.2,15.2H4.2
	c-0.3,0-0.5,0.2-0.5,0.5v1c0,0.9,0.7,1.6,1.6,1.6s1.6-0.7,1.6-1.6v-1C6.8,15.4,6.5,15.2,6.2,15.2z M5.7,16.8L5.7,16.8
	c0,0.3-0.3,0.5-0.5,0.5c-0.3,0-0.5-0.2-0.5-0.5v-0.5h1.1V16.8z M15.7,15.7H9.4c-0.3,0-0.5,0.2-0.5,0.5c0,0.3,0.2,0.5,0.5,0.5h6.3
	c0.3,0,0.5-0.2,0.5-0.5C16.2,16,16,15.7,15.7,15.7z"/>
</svg>
