<?xml version="1.0" encoding="utf-8"?>
<!-- Generator: Adobe Illustrator 12.0.0, SVG Export Plug-In . SVG Version: 6.00 Build 51448)  -->
<!DOCTYPE svg PUBLIC "-//W3C//DTD SVG 1.1//EN" "http://www.w3.org/Graphics/SVG/1.1/DTD/svg11.dtd" [
	<!ENTITY ns_svg "http://www.w3.org/2000/svg">
	<!ENTITY ns_xlink "http://www.w3.org/1999/xlink">
]>
<svg  version="1.1" id="Layer_1" xmlns="&ns_svg;" xmlns:xlink="&ns_xlink;" width="19.7" height="24" viewBox="0 0 19.7 24"
	 style="overflow:visible;enable-background:new 0 0 19.7 24;" xml:space="preserve">
<path d="M12.6,15.3c-0.2-0.4-0.8-1.4-0.3-2.3c2.2-1.4,3.7-4.4,3.7-7C16,2.8,13.1,0,9.8,0C6.5,0,3.6,2.8,3.6,5.9c0,0.1,0,0.2,0,0.4
	c0,0,0,0.1,0,0.1c0,0.1,0,0.1,0,0.2c0.2,2.5,1.7,5.2,3.7,6.4c0.4,0.9-0.2,1.9-0.4,2.2C5.8,15.6,0,17.2,0,20.9v1.5
	C0,23.3,0.7,24,1.5,24h16.5c0.9,0,1.5-0.7,1.6-1.5v-1.5C19.7,17.2,13.8,15.6,12.6,15.3z M9.8,1C12.5,1,15,3.4,15,5.9
	c-2.3-0.2-3.1-2.6-3.1-2.7c-0.1-0.2-0.3-0.4-0.5-0.4c-0.2,0-0.4,0.2-0.5,0.4c-0.3,1.9-4.2,2.5-6.2,2.6C4.7,3.3,7.1,1,9.8,1z
	 M4.7,6.9c1.5-0.1,5.3-0.5,6.7-2.3c0.6,1,1.6,2.1,3.5,2.3c-0.5,2.9-2.9,5.8-5.1,5.8C7.6,12.7,5.2,9.9,4.7,6.9z M7.7,16.1
	c0.1-0.1,1-1.2,0.9-2.5c0.4,0.1,0.8,0.2,1.2,0.2c0.4,0,0.9-0.1,1.3-0.2c-0.1,1.3,0.8,2.5,0.9,2.5c0.1,0.1,0.2,0.1,0.3,0.2
	c0,0,0.1,0,0.2,0c0,1.4-1.1,2.6-2.6,2.6c-1.4,0-2.6-1.1-2.6-2.6c0,0,0,0,0,0c0.1,0,0.1,0,0.1,0C7.5,16.2,7.6,16.2,7.7,16.1z
	 M18.6,22.5c0,0.3-0.2,0.5-0.5,0.5H1.6c-0.3,0-0.5-0.2-0.5-0.5v-1.5c0-2.3,3.3-3.8,5.2-4.3c0.1,1.9,1.7,3.3,3.6,3.3
	c1.9,0,3.5-1.4,3.6-3.3c1.9,0.6,5.2,2,5.2,4.3V22.5z"/>
</svg>
