<?xml version="1.0" encoding="utf-8"?>
<!-- Generator: Adobe Illustrator 12.0.0, SVG Export Plug-In . SVG Version: 6.00 Build 51448)  -->
<!DOCTYPE svg PUBLIC "-//W3C//DTD SVG 1.1//EN" "http://www.w3.org/Graphics/SVG/1.1/DTD/svg11.dtd" [
	<!ENTITY ns_svg "http://www.w3.org/2000/svg">
	<!ENTITY ns_xlink "http://www.w3.org/1999/xlink">
]>
<svg  version="1.1" id="Layer_1" xmlns="&ns_svg;" xmlns:xlink="&ns_xlink;" width="22" height="22" viewBox="0 0 22 22"
	 style="overflow:visible;enable-background:new 0 0 22 22;" xml:space="preserve">
<path d="M7.3,11c0,2.1,1.7,3.7,3.7,3.7c2.1,0,3.7-1.7,3.7-3.7c0-2.1-1.7-3.7-3.7-3.7C8.9,7.3,7.3,8.9,7.3,11z M8.4,11
	c0-1.5,1.2-2.6,2.6-2.6s2.6,1.2,2.6,2.6c0,1.5-1.2,2.6-2.6,2.6S8.4,12.5,8.4,11z"/>
<path d="M3.9,11c0,3.8,3.1,6.9,6.9,6.9c1.2,0,2.5-0.3,3.5-0.9c0.3-0.2,0.4-0.5,0.2-0.7c-0.2-0.3-0.5-0.4-0.7-0.2
	c-0.9,0.5-1.9,0.8-3,0.8C7.6,16.8,5,14.2,5,11c0-3.2,2.6-5.8,5.8-5.8c2.1,0,3.9,0.6,5.1,1.8c0.9,1,1.5,2.3,1.5,3.7
	c0,1.4-0.7,2.9-1.9,2.9c-0.3,0-0.5-0.1-0.6-0.2c-0.1-0.1-0.1-0.4-0.1-0.6l0-4.6c0-0.3-0.2-0.5-0.5-0.5c-0.3,0-0.5,0.2-0.5,0.5v4.5
	c0,0.4,0,1,0.4,1.4c0.3,0.3,0.8,0.5,1.4,0.5c1.7,0,3-1.7,3-4c0-1.6-0.6-3.3-1.8-4.4c-1.4-1.4-3.4-2.2-5.8-2.2C7,4.1,3.9,7.2,3.9,11z
	"/>
<path d="M17.8,0c-0.3,0-0.5,0.2-0.5,0.5V1c0,0.5-0.4,0.8-0.8,0.8c-0.4,0-0.8-0.4-0.8-0.8V0.5c0-0.3-0.2-0.5-0.5-0.5h-2.7
	c-0.3,0-0.5,0.2-0.5,0.5V1c0,0.5-0.4,0.8-0.8,0.8c-0.5,0-0.8-0.4-0.8-0.8V0.5C10.2,0.2,9.9,0,9.6,0H6.9C6.6,0,6.4,0.2,6.4,0.5V1
	c0,0.5-0.4,0.8-0.8,0.8S4.7,1.5,4.7,1V0.5C4.7,0.2,4.5,0,4.2,0H1.5C0.7,0,0,0.7,0,1.5v2.7c0,0.3,0.2,0.5,0.5,0.5H1
	c0.5,0,0.8,0.4,0.8,0.8S1.5,6.4,1,6.4H0.5C0.2,6.4,0,6.6,0,6.9v2.7c0,0.3,0.2,0.5,0.5,0.5H1c0.5,0,0.8,0.4,0.8,0.8S1.5,11.8,1,11.8
	H0.5c-0.3,0-0.5,0.2-0.5,0.5v2.7c0,0.3,0.2,0.5,0.5,0.5H1c0.5,0,0.8,0.4,0.8,0.8c0,0.5-0.4,0.8-0.8,0.8H0.5c-0.3,0-0.5,0.2-0.5,0.5
	v2.7C0,21.3,0.7,22,1.5,22h2.7c0.3,0,0.5-0.2,0.5-0.5V21c0-0.5,0.4-0.8,0.8-0.8s0.8,0.4,0.8,0.8v0.5c0,0.3,0.2,0.5,0.5,0.5h2.7
	c0.3,0,0.5-0.2,0.5-0.5V21c0-0.5,0.4-0.8,0.8-0.8c0.5,0,0.8,0.4,0.8,0.8v0.5c0,0.3,0.2,0.5,0.5,0.5h2.7c0.3,0,0.5-0.2,0.5-0.5V21
	c0-0.5,0.4-0.8,0.8-0.8c0.5,0,0.8,0.4,0.8,0.8v0.5c0,0.3,0.2,0.5,0.5,0.5h2.7c0.8,0,1.5-0.7,1.5-1.5v-2.7c0-0.3-0.2-0.5-0.5-0.5H21
	c-0.4,0-0.8-0.4-0.8-0.8c0-0.5,0.4-0.8,0.8-0.8h0.5c0.3,0,0.5-0.2,0.5-0.5v-2.7c0-0.3-0.2-0.5-0.5-0.5H21c-0.4,0-0.8-0.4-0.8-0.8
	s0.4-0.8,0.8-0.8h0.5c0.3,0,0.5-0.2,0.5-0.5V6.9c0-0.3-0.2-0.5-0.5-0.5H21c-0.4,0-0.8-0.4-0.8-0.8s0.4-0.8,0.8-0.8h0.5
	c0.3,0,0.5-0.2,0.5-0.5V1.5C22,0.7,21.3,0,20.5,0H17.8z M20.5,1.1c0.2,0,0.4,0.2,0.4,0.4c0,0,0,1.5,0,2.2c-1,0-1.8,0.9-1.8,1.9
	s0.8,1.8,1.8,1.9c0,0.5,0,1.2,0,1.7c-1,0-1.8,0.9-1.8,1.9s0.8,1.8,1.8,1.9c0,0.5,0,1.2,0,1.7c-1,0-1.8,0.9-1.8,1.9s0.8,1.8,1.8,1.9
	c0,0.7,0,2.2,0,2.2c0,0.2-0.2,0.4-0.4,0.4c0,0-1.5,0-2.2,0c0-1-0.9-1.8-1.9-1.8s-1.8,0.8-1.9,1.8c-0.5,0-1.2,0-1.7,0
	c0-1-0.9-1.8-1.9-1.8c-1,0-1.8,0.8-1.9,1.8c-0.5,0-1.2,0-1.7,0c0-1-0.9-1.8-1.9-1.8s-1.8,0.8-1.9,1.8c-0.7,0-2.2,0-2.2,0
	c-0.2,0-0.4-0.2-0.4-0.4c0,0,0-1.5,0-2.2c1,0,1.8-0.9,1.8-1.9s-0.8-1.8-1.8-1.9c0-0.5,0-1.2,0-1.7c1,0,1.8-0.9,1.8-1.9
	S2.1,9.2,1.1,9.1c0-0.5,0-1.2,0-1.7c1-0.1,1.8-0.9,1.8-1.9S2.1,3.7,1.1,3.7c0-0.7,0-2.2,0-2.2c0-0.2,0.2-0.4,0.4-0.4
	c0,0,1.5,0,2.2,0c0,1,0.9,1.8,1.9,1.8s1.8-0.8,1.9-1.8c0.5,0,1.2,0,1.7,0c0.1,1,0.9,1.8,1.9,1.8s1.8-0.8,1.9-1.8c0.5,0,1.2,0,1.7,0
	c0.1,1,0.9,1.8,1.9,1.8c1,0,1.8-0.8,1.9-1.8C19,1.1,20.5,1.1,20.5,1.1z"/>
</svg>
