<?xml version="1.0" encoding="utf-8"?>
<!-- Generator: Adobe Illustrator 12.0.0, SVG Export Plug-In . SVG Version: 6.00 Build 51448)  -->
<!DOCTYPE svg PUBLIC "-//W3C//DTD SVG 1.1//EN" "http://www.w3.org/Graphics/SVG/1.1/DTD/svg11.dtd" [
	<!ENTITY ns_svg "http://www.w3.org/2000/svg">
	<!ENTITY ns_xlink "http://www.w3.org/1999/xlink">
]>
<svg  version="1.1" id="Layer_1" xmlns="&ns_svg;" xmlns:xlink="&ns_xlink;" width="24" height="21.7" viewBox="0 0 24 21.7"
	 style="overflow:visible;enable-background:new 0 0 24 21.7;" xml:space="preserve">
<path d="M0.8,0C0.3,0,0,0.3,0,0.8v1.1v15.3C0,17.7,0.3,18,0.8,18h9.5v1.6H6.6l-0.7,1.5l-0.3,0.6h0l0,0h12.7l-1-2.1h-3.6V18h9.5
	c0.3,0,0.5-0.1,0.6-0.3c0.1-0.1,0.1-0.3,0.1-0.4V1.9V0.8C24,0.3,23.7,0,23.2,0h-1.1H1.9H0.8z M1.9,1.9H8l0.9,0L8.2,6.2L8.1,7.1
	l0,0.2h0l0,0l1-0.1l2.3-0.3l1.4-0.2l-2.3,3.9L10.1,11l0.4,0.2l3.4,2.2l0.3-0.4l-2.8-2.2l3-4.5l0.4-0.6L15,5.3h0l0,0l-1.2,0.1L11,5.5
	l-1,0.1l1.3-3.7h10.9v14.3H1.9V1.9L1.9,1.9z"/>
</svg>
