<?xml version="1.0" encoding="utf-8"?>
<!-- Generator: Adobe Illustrator 12.0.0, SVG Export Plug-In . SVG Version: 6.00 Build 51448)  -->
<!DOCTYPE svg PUBLIC "-//W3C//DTD SVG 1.1//EN" "http://www.w3.org/Graphics/SVG/1.1/DTD/svg11.dtd" [
	<!ENTITY ns_svg "http://www.w3.org/2000/svg">
	<!ENTITY ns_xlink "http://www.w3.org/1999/xlink">
]>
<svg  version="1.1" id="Layer_1" xmlns="&ns_svg;" xmlns:xlink="&ns_xlink;" width="24" height="19.9" viewBox="0 0 24 19.9"
	 style="overflow:visible;enable-background:new 0 0 24 19.9;" xml:space="preserve">
<path d="M21.8,6.8l-2-5c-0.4-1-1.2-1.8-2.7-1.8h-2.8v0H9.6v0H6.8C5.3,0,4.5,0.8,4.1,1.8l-2,5C1.4,6.9,0,7.8,0,9.6V16h1.9v2
	c0,2.5,3.6,2.5,3.6,0v-2h13v2c0,2.5,3.6,2.5,3.6,0v-2H24V9.6C24,7.8,22.6,6.9,21.8,6.8z M3.8,12c-0.9,0-1.7-0.8-1.7-1.7
	c0-0.9,0.7-1.7,1.7-1.7c0.9,0,1.7,0.8,1.7,1.7C5.4,11.3,4.7,12,3.8,12z M4.2,6.7l1.5-3.9c0.2-0.6,0.5-1,1.1-1h10.4
	c0.7,0,0.9,0.4,1.1,1l1.5,3.9H4.2z M20.2,12c-0.9,0-1.7-0.8-1.7-1.7c0-0.9,0.7-1.7,1.7-1.7s1.7,0.8,1.7,1.7
	C21.9,11.3,21.1,12,20.2,12z"/>
</svg>
