<?xml version="1.0" encoding="utf-8"?>
<!-- Generator: Adobe Illustrator 12.0.0, SVG Export Plug-In . SVG Version: 6.00 Build 51448)  -->
<!DOCTYPE svg PUBLIC "-//W3C//DTD SVG 1.1//EN" "http://www.w3.org/Graphics/SVG/1.1/DTD/svg11.dtd" [
	<!ENTITY ns_svg "http://www.w3.org/2000/svg">
	<!ENTITY ns_xlink "http://www.w3.org/1999/xlink">
]>
<svg  version="1.1" id="Layer_1" xmlns="&ns_svg;" xmlns:xlink="&ns_xlink;" width="23" height="22.9" viewBox="0 0 23 22.9"
	 style="overflow:visible;enable-background:new 0 0 23 22.9;" xml:space="preserve">
<path d="M13.5,18.6c-0.2,0.2-0.2,0.6,0,0.8l2.4,2.4c0.2,0.2,0.6,0.2,0.8,0s0.2-0.6,0-0.8l-2.4-2.4C14.1,18.4,13.7,18.4,13.5,18.6z"
	/>
<rect x="17.7" y="15.4" transform="matrix(0.7068 0.7074 -0.7074 0.7068 16.9451 -9.0015)" width="3.4" height="1.2"/>
<path d="M19.6,12.4l-6.2,6.2c-0.1,0.1-0.1,0.2-0.1,0.3l-1,3.3c-0.1,0.2,0,0.4,0.1,0.6c0.1,0.2,0.4,0.2,0.6,0.1l3.3-1
	c0.1,0,0.2-0.1,0.3-0.1l6.2-6.2c0.1-0.1,0.2-0.3,0.2-0.4c0-0.2-0.1-0.3-0.2-0.4l-2.4-2.4C20.2,12.2,19.9,12.2,19.6,12.4z M20,13.7
	c0.4,0.4,1.1,1.1,1.6,1.6c-0.7,0.7-5.5,5.5-5.7,5.7c-0.2,0.1-1.3,0.4-2.2,0.6c0.3-0.9,0.6-2,0.6-2.2C14.6,19.1,19.3,14.4,20,13.7z"
	/>
<path d="M9.9,0C8.6,0,7.1,0.4,6.5,1.3C6,1.3,5.6,1.4,5.3,1.7C5,2.1,4.9,2.5,4.9,3c0,0.6,0.2,1.2,0.3,1.6C5,4.8,4.9,5.2,4.9,5.7
	c0,0.6,0.2,1,0.4,1.2c0.1,1.7,0.9,2.6,1.4,2.9c0,0.4,0,1.2,0,1.7c-0.5,0.2-1.9,0.7-1.9,0.7c-2,0.7-3.8,1.3-4.1,2.4
	C0.1,16,0,18.5,0,18.6c0,0,0,0,0,0c0,0.2,0.1,0.3,0.2,0.4c0.1,0.1,0.3,0.2,0.4,0.2h10V18c0,0-8.3,0-9.4,0c0.1-0.8,0.2-2.2,0.5-3.1
	c0.2-0.5,2-1.2,3.4-1.6l2.4-0.9c0.2-0.1,0.4-0.3,0.4-0.5V9.5c0-0.2-0.1-0.4-0.3-0.5c0,0-1.1-0.5-1.1-2.3c0-0.2-0.1-0.4-0.3-0.5
	C6,6.1,6,5.9,6,5.7c0-0.2,0-0.4,0.1-0.5c0.1,0,0.1,0,0.2-0.1C6.3,5.1,6.4,5,6.4,4.9c0,0,0-0.1,0-0.1L6.3,4.3C6.1,3.6,6,3.2,6,2.9
	c0-0.2,0-0.3,0.1-0.4c0.1-0.1,0.2-0.1,0.6,0C7,2.6,7.3,2.4,7.3,2.1c0.1-0.5,1.2-0.9,2.5-0.9c1.3,0,2.4,0.4,2.6,0.9
	c0.2,0.7-0.2,1.6-0.4,2.1l-0.2,0.6c0,0.2,0,0.3,0.1,0.4c0.1,0.1,0.3,0.2,0.5,0.2l0,0c0,0,0.1,0.2,0.1,0.4c0,0.2-0.1,0.4-0.1,0.4
	c-0.3,0-0.6,0.3-0.6,0.6c0,1.8-1,2.3-1.1,2.3c-0.2,0.1-0.3,0.3-0.3,0.5v2.4c0,0.2,0.2,0.5,0.4,0.5l2.6,1.1l2,0.8l0.4-1.1l-1.9-0.8
	c0,0-1.8-0.7-2.3-0.9c0-0.5,0-1.3,0-1.7C12.1,9.5,12.9,8.7,13,7c0.4-0.2,0.8-0.7,0.8-1.3l-0.3-1c-0.1-0.1-0.2-0.2-0.3-0.3
	c0.2-0.5,0.5-1.1,0.5-1.9c0-0.2,0-0.5-0.1-0.7C13.2,0.5,11.4,0,9.9,0z M5.3,4.4c0.1-0.1,0.3-0.2,0.5-0.2c-0.2,0-0.4,0.2-0.5,0.3
	C5.3,4.5,5.3,4.4,5.3,4.4z M5.4,7c0.1,0.1,0.3,0.3,0.4,0.3C5.6,7.3,5.5,7.1,5.4,7z M12.9,7.1c-0.1,0.1-0.2,0.2-0.4,0.2
	C12.6,7.3,12.7,7.1,12.9,7.1z"/>
</svg>
