<?xml version="1.0" encoding="utf-8"?>
<!-- Generator: Adobe Illustrator 12.0.0, SVG Export Plug-In . SVG Version: 6.00 Build 51448)  -->
<!DOCTYPE svg PUBLIC "-//W3C//DTD SVG 1.1//EN" "http://www.w3.org/Graphics/SVG/1.1/DTD/svg11.dtd" [
	<!ENTITY ns_svg "http://www.w3.org/2000/svg">
	<!ENTITY ns_xlink "http://www.w3.org/1999/xlink">
]>
<svg  version="1.1" id="svg1953" xmlns:svg="http://www.w3.org/2000/svg" xmlns="&ns_svg;" xmlns:xlink="&ns_xlink;"
	 width="24" height="24" viewBox="0 0 24 24" style="overflow:visible;enable-background:new 0 0 24 24;" xml:space="preserve">
<path id="path1962" d="M18.2,23.3c0,0-1.3-2.5-2.8-5.4s-2.8-5.3-2.8-5.3c0,0-0.8,0.7-2.2,2.1c-2,2-2.2,2.2-2.2,2.4
	c0,0.1,0.1,0.9,0.2,1.7l0.2,1.5l-0.9,0.9l-0.9,0.9l-1-2l-1-2l-1.9-1c-1.1-0.6-1.9-1-1.9-1c0,0,0.4-0.4,0.9-0.9l0.9-0.9l1.7,0.2
	L6,14.9l2.2-2.2c1.7-1.7,2.2-2.2,2.1-2.3c0,0-2.5-1.3-5.5-2.9l-5.4-2.8l1.1-1.1l1.1-1.1l6.6,1.8L15,6l3-3c2.1-2.1,3.1-3.1,3.3-3.2
	c0.2-0.1,0.4-0.1,0.6-0.1c0.5,0,0.8,0.1,1.2,0.5c0.3,0.3,0.4,0.6,0.4,1c0,0.7,0,0.6-3.4,4l-3.1,3.1l1.3,5.1c0.7,2.8,1.5,5.7,1.7,6.5
	l0.4,1.4l-1.1,1.1C18.5,23.1,18.2,23.4,18.2,23.3z"/>
</svg>
