<?xml version="1.0" encoding="utf-8"?>
<!-- Generator: Adobe Illustrator 12.0.0, SVG Export Plug-In . SVG Version: 6.00 Build 51448)  -->
<!DOCTYPE svg PUBLIC "-//W3C//DTD SVG 1.1//EN" "http://www.w3.org/Graphics/SVG/1.1/DTD/svg11.dtd" [
	<!ENTITY ns_svg "http://www.w3.org/2000/svg">
	<!ENTITY ns_xlink "http://www.w3.org/1999/xlink">
]>
<svg  version="1.1" id="Layer_1" xmlns="&ns_svg;" xmlns:xlink="&ns_xlink;" width="24" height="15.1" viewBox="0 0 24 15.1"
	 style="overflow:visible;enable-background:new 0 0 24 15.1;" xml:space="preserve">
<path d="M19.4,6c-0.6,0-1.1,0.1-1.6,0.3l-1.6-2.8h1.1V2h-4.2v1.1H7.7c0.3-0.8,0.5-1.5,0.5-1.7c0.7,0,2.2,0,2.2,0V0H7.2L5.2,6
	C5,6,4.8,6,4.6,6C2,6,0,8,0,10.6c0,2.5,2,4.6,4.6,4.6c2.5,0,4.6-2,4.6-4.6c0-1-0.3-1.9-0.8-2.6l3.4,2.5c0,0.1,0,0.1,0,0.2
	c0,0.5,0.3,1,0.7,1.2v1.8h2.3v-1.4c0,0-0.4,0-0.8,0v-0.3c0.2-0.1,0.4-0.3,0.5-0.5h0.6c0.3,2.2,2.2,3.8,4.5,3.8c2.5,0,4.6-2,4.6-4.6
	C24,8,22,6,19.4,6z M18.2,9.8h-1.8c0.1-0.6,0.5-1.1,0.9-1.6C17.7,8.9,18,9.4,18.2,9.8z M14.9,9.8h-0.6c0-0.1-0.1-0.1-0.1-0.2
	c0.4-1.1,1.1-2.9,1.5-4.1C16,6,16.3,6.5,16.6,7C15.7,7.7,15.1,8.7,14.9,9.8z M14.6,4.6l-1.7,4.6c-0.1,0-0.2,0.1-0.3,0.1
	C11,8.1,7.9,5.8,7,5.2C7.1,5,7.1,4.8,7.2,4.6H14.6z M4.2,10.5l0.7,0.2c0,0.1-0.2,0.3-0.3,0.3c-0.2,0-0.4-0.2-0.4-0.4
	C4.2,10.5,4.2,10.5,4.2,10.5z M4.6,13.7c-1.7,0-3.1-1.4-3.1-3.1s1.4-3.1,3.1-3.1c0.1,0,0.2,0,0.2,0L4.1,9.6c-0.4,0.2-0.6,0.5-0.6,1
	c0,0.6,0.5,1.1,1.1,1.1s1.1-0.5,1.1-1.1c0-0.2-0.1-0.4-0.2-0.5c0.2-0.5,0.4-1.3,0.7-2.1c0.9,0.5,1.5,1.5,1.5,2.7
	C7.7,12.3,6.3,13.7,4.6,13.7z M19.4,13.7c-1.5,0-2.7-1-3-2.4h2.2c0.2,0.2,0.5,0.4,0.8,0.4c0.3,0,0.6-0.1,0.8-0.4h0.4l-0.2-0.4
	c0-0.1,0.1-0.2,0.1-0.3c0-0.5-0.4-1-0.9-1.1l-1.1-1.9c0.3-0.1,0.6-0.1,0.9-0.1c1.7,0,3.1,1.4,3.1,3.1S21.2,13.7,19.4,13.7z"/>
</svg>
