<?xml version="1.0" encoding="utf-8"?>
<!-- Generator: Adobe Illustrator 12.0.0, SVG Export Plug-In . SVG Version: 6.00 Build 51448)  -->
<!DOCTYPE svg PUBLIC "-//W3C//DTD SVG 1.1//EN" "http://www.w3.org/Graphics/SVG/1.1/DTD/svg11.dtd" [
	<!ENTITY ns_svg "http://www.w3.org/2000/svg">
	<!ENTITY ns_xlink "http://www.w3.org/1999/xlink">
]>
<svg  version="1.1" id="Layer_1" xmlns="&ns_svg;" xmlns:xlink="&ns_xlink;" width="24" height="22.7" viewBox="0 0 24 22.7"
	 style="overflow:visible;enable-background:new 0 0 24 22.7;" xml:space="preserve">
<g id="Expanded">
	<g>
		<g>
			<path d="M21,22.7h-7v-6.5h-4v6.5H3V12.2c0-0.3,0.2-0.5,0.5-0.5c0.3,0,0.5,0.2,0.5,0.5v9.5h5v-6.5h6v6.5h5v-9
				c0-0.3,0.2-0.5,0.5-0.5c0.3,0,0.5,0.2,0.5,0.5V22.7z"/>
		</g>
		<g>
			<path d="M23.5,12.2c-0.1,0-0.3,0-0.3-0.1L12,1.4L0.8,12.1c-0.2,0.2-0.5,0.2-0.7,0c-0.2-0.2-0.2-0.5,0-0.7L12,0l11.8,11.3
				c0.2,0.2,0.2,0.5,0,0.7C23.8,12.1,23.6,12.2,23.5,12.2z"/>
		</g>
		<g>
			<path d="M19.5,6.2C19.2,6.2,19,6,19,5.7v-3h-3c-0.3,0-0.5-0.2-0.5-0.5c0-0.3,0.2-0.5,0.5-0.5h4v4C20,6,19.8,6.2,19.5,6.2z"/>
		</g>
	</g>
</g>
</svg>
