<?xml version="1.0" encoding="utf-8"?>
<!-- Generator: Adobe Illustrator 12.0.0, SVG Export Plug-In . SVG Version: 6.00 Build 51448)  -->
<!DOCTYPE svg PUBLIC "-//W3C//DTD SVG 1.1//EN" "http://www.w3.org/Graphics/SVG/1.1/DTD/svg11.dtd" [
	<!ENTITY ns_svg "http://www.w3.org/2000/svg">
	<!ENTITY ns_xlink "http://www.w3.org/1999/xlink">
]>
<svg  version="1.1" id="Layer_1" xmlns="&ns_svg;" xmlns:xlink="&ns_xlink;" width="17.4" height="23" viewBox="0 0 17.4 23"
	 style="overflow:visible;enable-background:new 0 0 17.4 23;" xml:space="preserve">
<path d="M16.9,0H0.5v0C0.2,0,0,0.2,0,0.5v22.1C0,22.8,0.2,23,0.5,23h16.5c0.3,0,0.5-0.2,0.5-0.5V0.5C17.4,0.2,17.2,0,16.9,0z
	 M16.5,22.1H0.9V0.9h15.5V22.1z M3.8,6.2h7.9c0.3,0,0.5-0.2,0.5-0.5S12,5.3,11.7,5.3H3.8c-0.3,0-0.5,0.2-0.5,0.5S3.6,6.2,3.8,6.2z
	 M3.8,9.3h4c0.3,0,0.5-0.2,0.5-0.5S8.1,8.3,7.8,8.3h-4c-0.3,0-0.5,0.2-0.5,0.5S3.6,9.3,3.8,9.3z M3.8,12.3h4c0.3,0,0.5-0.2,0.5-0.5
	c0-0.3-0.2-0.5-0.5-0.5h-4c-0.3,0-0.5,0.2-0.5,0.5C3.4,12.1,3.6,12.3,3.8,12.3z M3.8,15.4h3c0.3,0,0.5-0.2,0.5-0.5
	c0-0.3-0.2-0.5-0.5-0.5h-3c-0.3,0-0.5,0.2-0.5,0.5C3.4,15.1,3.6,15.4,3.8,15.4z M10.1,12.5l-0.8,0l0,0.6l0.7,0l0,0.4l0,0.2l0,0.2
	l-0.7,0l0,0.6l0.8,0c0.1,0.8,0.4,1.4,0.9,1.8c0.4,0.4,1,0.6,1.8,0.6c0.5,0,1-0.1,1.5-0.3l0-0.7c-0.5,0.2-1,0.3-1.4,0.3
	c-0.5,0-0.9-0.2-1.3-0.5c-0.3-0.3-0.5-0.7-0.6-1.3l2.1,0l0-0.6l-2.2,0l0-0.2l0-0.3l0-0.3l2.4,0l0-0.6l-2.4,0
	c0.3-1.2,0.9-1.8,1.9-1.8c0.4,0,0.9,0.1,1.4,0.4l0.3-0.6C14,10.2,13.4,10,12.8,10c-0.7,0-1.3,0.2-1.8,0.6
	C10.5,11.1,10.2,11.7,10.1,12.5z"/>
</svg>
