<?xml version="1.0" encoding="utf-8"?>
<!-- Generator: Adobe Illustrator 12.0.0, SVG Export Plug-In . SVG Version: 6.00 Build 51448)  -->
<!DOCTYPE svg PUBLIC "-//W3C//DTD SVG 1.1//EN" "http://www.w3.org/Graphics/SVG/1.1/DTD/svg11.dtd" [
	<!ENTITY ns_svg "http://www.w3.org/2000/svg">
	<!ENTITY ns_xlink "http://www.w3.org/1999/xlink">
]>
<svg  version="1.1" id="Layer_1" xmlns="&ns_svg;" xmlns:xlink="&ns_xlink;" width="24" height="24.1" viewBox="0 0 24 24.1"
	 style="overflow:visible;enable-background:new 0 0 24 24.1;" xml:space="preserve">
<path d="M24,19c0,0.3-0.1,0.7-0.2,1.2c-0.1,0.5-0.2,0.9-0.3,1.2c-0.2,0.5-1,1.2-2.1,1.9c-1.1,0.5-2.1,0.9-3.2,0.9
	c-0.3,0-0.7,0-0.9-0.1c-0.3,0-0.7-0.1-1-0.2c-0.3-0.1-0.7-0.2-0.8-0.2c-0.2-0.1-0.5-0.2-1-0.3c-0.4-0.3-0.8-0.3-0.9-0.4
	c-1.1-0.4-2.1-0.9-2.9-1.4c-1.4-0.9-2.9-2.1-4.5-3.7c-1.5-1.5-2.7-3.1-3.7-4.5c-0.5-0.9-1-1.9-1.4-2.9c-0.1-0.1-0.1-0.4-0.3-0.9
	C0.7,8.9,0.5,8.6,0.5,8.5C0.4,8.3,0.3,8,0.3,7.6C0.2,7.3,0.1,7,0.1,6.7C0,6.4,0,6.1,0,5.8c0-1.1,0.3-2.1,0.9-3.2
	c0.7-1.2,1.2-1.9,1.9-2.1c0.3-0.1,0.7-0.2,1.2-0.3C4.4,0.1,4.7,0,5,0c0.2,0,0.3,0,0.4,0C5.7,0.1,6,0.5,6.3,1.3
	c0.1,0.2,0.3,0.5,0.5,0.9c0.2,0.4,0.4,0.8,0.5,1.1c0.2,0.4,0.3,0.7,0.5,1c0,0,0.1,0.2,0.3,0.4c0.2,0.2,0.3,0.4,0.3,0.7
	c0.1,0.1,0.1,0.3,0.1,0.4c0,0.2-0.1,0.5-0.4,0.9C8,7,7.6,7.3,7.2,7.6C6.9,8,6.4,8.2,6.1,8.5C5.8,8.8,5.7,9.1,5.7,9.3
	c0,0.1,0,0.2,0.1,0.4c0,0.1,0,0.2,0.1,0.3C6,10.1,6,10.3,6.1,10.5c0.1,0.2,0.2,0.3,0.2,0.3c0.9,1.5,1.9,2.9,2.9,4
	c1.1,1.1,2.4,2.1,4,2.9c0,0,0.1,0.1,0.3,0.2c0.2,0.1,0.3,0.2,0.4,0.2c0.1,0,0.2,0.1,0.3,0.1c0.1,0.1,0.3,0.1,0.4,0.1
	c0.2,0,0.4-0.1,0.8-0.4s0.7-0.7,0.9-1.1c0.3-0.3,0.5-0.8,1-1.1c0.3-0.3,0.7-0.4,0.9-0.4c0.1,0,0.3,0,0.4,0.1
	c0.2,0.1,0.3,0.2,0.7,0.3c0.2,0.2,0.3,0.2,0.4,0.3c0.3,0.2,0.5,0.3,0.9,0.5s0.7,0.3,1.1,0.5s0.7,0.4,0.9,0.5
	c0.8,0.4,1.2,0.7,1.3,0.9C24,18.7,24,18.8,24,19z"/>
</svg>
