<?xml version="1.0" encoding="utf-8"?>
<!-- Generator: Adobe Illustrator 12.0.0, SVG Export Plug-In . SVG Version: 6.00 Build 51448)  -->
<!DOCTYPE svg PUBLIC "-//W3C//DTD SVG 1.1//EN" "http://www.w3.org/Graphics/SVG/1.1/DTD/svg11.dtd" [
	<!ENTITY ns_svg "http://www.w3.org/2000/svg">
	<!ENTITY ns_xlink "http://www.w3.org/1999/xlink">
]>
<svg  version="1.1" id="Layer_1" xmlns="&ns_svg;" xmlns:xlink="&ns_xlink;" width="24" height="22.4" viewBox="0 0 24 22.4"
	 style="overflow:visible;enable-background:new 0 0 24 22.4;" xml:space="preserve">
<path d="M19,1c-0.3-0.6-0.8-1-1.5-1H6.4C5.8,0,5.2,0.4,5,1L0,13.9L0,14v6.9c0,0.9,0.7,1.6,1.6,1.6h20.9c0.9,0,1.6-0.7,1.6-1.6V14
	L19,1z M6,1.4C6,1.2,6.2,1.1,6.4,1.1h11.1c0.2,0,0.4,0.1,0.5,0.3l4.7,12.2h-6.1c-0.5,0-0.9,0.4-1,0.8l-0.3,1.3
	c-0.1,0.3-0.3,0.4-0.5,0.4H9.2c-0.3,0-0.4-0.2-0.5-0.4l-0.3-1.3c-0.1-0.5-0.5-0.8-1-0.8H1.3L6,1.4z M22.9,20.9
	c0,0.3-0.2,0.5-0.5,0.5H1.6c-0.3,0-0.5-0.2-0.5-0.5v-6.3h6.3L7.7,16c0.2,0.7,0.8,1.3,1.5,1.3h5.6c0.7,0,1.4-0.5,1.5-1.3l0.3-1.3h6.3
	V20.9z M19.8,11.5V13h1.1v-1.6c0-0.7-0.4-1.3-1.1-1.5V8.9c0-0.7-0.4-1.2-1-1.5V6.2c0-0.7-0.5-1.3-1.1-1.5V3.7c0-0.9-0.7-1.6-1.6-1.6
	H7.8C7,2.1,6.2,2.8,6.2,3.7v1.1c-0.6,0.2-1,0.8-1,1.5v1.2C4.6,7.6,4.2,8.2,4.2,8.9V10c-0.6,0.2-1,0.8-1,1.5V13h1.1v-1.6
	c0-0.3,0.2-0.5,0.5-0.5h14.6C19.6,11,19.8,11.2,19.8,11.5z M7.3,3.7c0-0.3,0.2-0.5,0.5-0.5h8.3c0.3,0,0.5,0.2,0.5,0.5v1H7.3V3.7z
	 M6.3,6.2c0-0.3,0.2-0.5,0.5-0.5h10.4c0.3,0,0.5,0.2,0.5,0.5v1.1H6.3V6.2z M18.8,9.9H5.2v-1c0-0.3,0.2-0.5,0.5-0.5h12.5
	c0.3,0,0.5,0.2,0.5,0.5V9.9z"/>
</svg>
