<?xml version="1.0" encoding="utf-8"?>
<!-- Generator: Adobe Illustrator 12.0.0, SVG Export Plug-In . SVG Version: 6.00 Build 51448)  -->
<!DOCTYPE svg PUBLIC "-//W3C//DTD SVG 1.1//EN" "http://www.w3.org/Graphics/SVG/1.1/DTD/svg11.dtd" [
	<!ENTITY ns_svg "http://www.w3.org/2000/svg">
	<!ENTITY ns_xlink "http://www.w3.org/1999/xlink">
]>
<svg  version="1.1" id="Layer_1" xmlns="&ns_svg;" xmlns:xlink="&ns_xlink;" width="24" height="21.5" viewBox="0 0 24 21.5"
	 style="overflow:visible;enable-background:new 0 0 24 21.5;" xml:space="preserve">
<g id="tablet">
	<g id="iPad-dashboard-mvp-02" transform="translate(-109.000000, -192.000000)">
		<g id="mp-icon-schademelden" transform="translate(109.000000, 192.000000)">
			<path id="Fill-1" d="M12,6.3c-0.3,0-0.5,0.3-0.5,0.5v6.8c0,0.3,0.2,0.5,0.5,0.5c0.3,0,0.5-0.3,0.5-0.5V6.8
				C12.5,6.5,12.3,6.3,12,6.3L12,6.3z"/>
			<path id="Fill-2" d="M12,15.5c-0.3,0-0.5,0.3-0.5,0.5v1.1c0,0.3,0.2,0.5,0.5,0.5c0.3,0,0.5-0.3,0.5-0.5v-1.1
				C12.5,15.8,12.3,15.5,12,15.5L12,15.5z"/>
			<path id="Fill-3" d="M13.5,0.8C13.1,0.3,12.6,0,12,0c-0.6,0-1.2,0.3-1.4,0.8L0.2,19c-0.3,0.5-0.3,1.2,0,1.7
				c0.3,0.5,0.8,0.8,1.4,0.8h20.7c0.6,0,1.2-0.3,1.4-0.8s0.3-1.2,0-1.7L13.5,0.8z M22.9,20.1c-0.1,0.1-0.2,0.3-0.5,0.3H1.7
				c-0.3,0-0.5-0.2-0.5-0.3c-0.1-0.1-0.2-0.3,0-0.6L11.5,1.4c0.2-0.3,0.4-0.3,0.5-0.3s0.4,0,0.5,0.3l10.4,18.1
				C23,19.8,22.9,20,22.9,20.1L22.9,20.1z"/>
		</g>
	</g>
</g>
</svg>
