<?xml version="1.0" encoding="utf-8"?>
<!-- Generator: Adobe Illustrator 12.0.0, SVG Export Plug-In . SVG Version: 6.00 Build 51448)  -->
<!DOCTYPE svg PUBLIC "-//W3C//DTD SVG 1.1//EN" "http://www.w3.org/Graphics/SVG/1.1/DTD/svg11.dtd" [
	<!ENTITY ns_svg "http://www.w3.org/2000/svg">
	<!ENTITY ns_xlink "http://www.w3.org/1999/xlink">
]>
<svg  version="1.1" id="Layer_1" xmlns="&ns_svg;" xmlns:xlink="&ns_xlink;" width="23" height="19.6" viewBox="0 0 23 19.6"
	 style="overflow:visible;enable-background:new 0 0 23 19.6;" xml:space="preserve">
<path d="M21.5,0h-20C0.7,0,0,0.7,0,1.5v13C0,15.3,0.7,16,1.5,16c0,0,1.4,0,1.8,0C3.6,16.3,6,19.1,6,19.1c0.3,0.3,0.6,0.5,1,0.5
	s0.8-0.2,1-0.5c0,0,2.4-2.8,2.7-3.1c0.4,0,10.8,0,10.8,0c0.8,0,1.5-0.7,1.5-1.5v-13C23,0.7,22.3,0,21.5,0z M21,14c-0.9,0-11,0-11,0
	s-2.4,2.6-3,3.3C6.4,16.6,4.3,14,4.3,14S2.7,14,2,14V2h19V14z"/>
<path d="M4.7,4C4.3,4,4,4.3,4,4.7v0.6C4,5.7,4.3,6,4.7,6h12.6C17.7,6,18,5.7,18,5.3V4.7C18,4.3,17.7,4,17.3,4H4.7z M17,5
	C16.5,5,5.5,5,5,5C5.5,5,16.5,5,17,5z"/>
<path d="M4.7,7C4.3,7,4,7.3,4,7.7v0.6C4,8.7,4.3,9,4.7,9h12.6C17.7,9,18,8.7,18,8.3V7.7C18,7.3,17.7,7,17.3,7H4.7z M17,8
	C16.5,8,5.5,8,5,8C5.5,8,16.5,8,17,8z"/>
<path d="M4.7,10C4.3,10,4,10.3,4,10.7v0.6C4,11.7,4.3,12,4.7,12h8.6c0.4,0,0.7-0.3,0.7-0.7v-0.6c0-0.4-0.3-0.7-0.7-0.7H4.7z M13,11
	c-0.5,0-7.5,0-8,0C5.5,11,12.5,11,13,11z"/>
</svg>
