<?xml version="1.0" encoding="utf-8"?>
<svg class="m-nav__icon__svg" version="1.1" id="Layer_1" xmlns="&ns_svg;" xmlns:xlink="&ns_xlink;" width="24" height="22" viewBox="0 0 24 22"
	 overflow="visible" enable-background="new 0 0 24 22" xml:space="preserve">
<g>
	<g>
		<g>
			<g>
				<g>
					<g>
						<path d="M2.75,9.666c-0.124,0-0.241,0.056-0.32,0.15c-0.08,0.095-0.112,0.22-0.09,0.341l1.666,9.168
							c0.037,0.197,0.209,0.342,0.41,0.342h14.167c0.201,0,0.374-0.145,0.41-0.342l1.667-9.168c0.021-0.121-0.009-0.248-0.09-0.341
							c-0.079-0.095-0.196-0.15-0.32-0.15H2.75z M19.751,10.5c-0.153,0.846-1.407,7.734-1.515,8.333c-0.646,0-12.827,0-13.472,0
							c-0.109-0.599-1.361-7.487-1.516-8.333C4.164,10.5,18.836,10.5,19.751,10.5z"/>
					</g>
					<g id="Clip-4">
					</g>
					<g>
						<path d="M1.917,8C1.687,8,1.5,8.187,1.5,8.417v1.667c0,0.23,0.187,0.417,0.417,0.417h19.167
							c0.23,0,0.417-0.187,0.417-0.417V8.417C21.5,8.187,21.313,8,21.083,8H1.917z M20.667,8.833c0,0.313,0,0.521,0,0.833
							c-0.78,0-17.554,0-18.333,0c0-0.312,0-0.52,0-0.833C3.113,8.833,19.887,8.833,20.667,8.833z"/>
					</g>
					<g>
						<path d="M9.122,1.456l-5,5c-0.163,0.163-0.163,0.426,0,0.589c0.163,0.163,0.426,0.163,0.589,0l5-5
							c0.163-0.163,0.163-0.426,0-0.589C9.548,1.292,9.285,1.292,9.122,1.456z"/>
					</g>
					<g>
						<path d="M13.289,1.456c-0.163,0.163-0.163,0.426,0,0.589l5,5c0.162,0.163,0.426,0.163,0.589,0
							c0.163-0.163,0.163-0.426,0-0.589l-5-5C13.715,1.292,13.451,1.292,13.289,1.456z"/>
					</g>
					<g>
						<path d="M12.333,11.75v5c0,0.23,0.187,0.417,0.417,0.417s0.417-0.187,0.417-0.417v-5
							c0-0.23-0.187-0.417-0.417-0.417S12.333,11.52,12.333,11.75z"/>
					</g>
					<g>
						<path d="M15.667,11.75v5c0,0.23,0.187,0.417,0.416,0.417c0.23,0,0.417-0.187,0.417-0.417v-5
							c0-0.23-0.187-0.417-0.417-0.417C15.854,11.333,15.667,11.52,15.667,11.75z"/>
					</g>
					<g>
						<path d="M9.833,11.75v5c0,0.23,0.186,0.417,0.417,0.417s0.417-0.187,0.417-0.417v-5
							c0-0.23-0.186-0.417-0.417-0.417S9.833,11.52,9.833,11.75z"/>
					</g>
					<g>
						<path d="M6.5,11.75v5c0,0.23,0.187,0.417,0.417,0.417c0.23,0,0.417-0.187,0.417-0.417v-5
							c0-0.23-0.187-0.417-0.417-0.417C6.687,11.333,6.5,11.52,6.5,11.75z"/>
					</g>
				</g>
			</g>
		</g>
	</g>
</g>
</svg>
