<?xml version="1.0" encoding="utf-8"?>
<!-- Generator: Adobe Illustrator 12.0.0, SVG Export Plug-In . SVG Version: 6.00 Build 51448)  -->
<!DOCTYPE svg PUBLIC "-//W3C//DTD SVG 1.1//EN" "http://www.w3.org/Graphics/SVG/1.1/DTD/svg11.dtd" [
	<!ENTITY ns_svg "http://www.w3.org/2000/svg">
	<!ENTITY ns_xlink "http://www.w3.org/1999/xlink">
]>
<svg  version="1.1" id="Capa_1" xmlns="&ns_svg;" xmlns:xlink="&ns_xlink;" width="24" height="24" viewBox="2.5 2.5 24 24"
	 overflow="visible" enable-background="new 2.5 2.5 24 24" xml:space="preserve">
<path fill="#FFFFFF" d="M9.668,9.598c0,0,1.449-1.45,4.188-4.188c0.403-0.402,0.725-0.563,1.37,0
	c0.563,0.564,4.348,4.107,4.429,4.188c0.081,0.081,0.242,0.161,0.403,0.161c0.16,0,0.321-0.081,0.402-0.161
	c0.241-0.242,0.241-0.645,0-0.886c-0.161-0.161-3.866-3.624-4.43-4.188c-0.967-0.886-2.094-0.886-2.979,0
	c-2.819,2.738-4.269,4.188-4.269,4.188c-0.241,0.242-0.241,0.645,0,0.886C9.024,9.839,9.426,9.839,9.668,9.598z M25.855,10.242
	H3.145c-0.322,0-0.645,0.242-0.645,0.645v3.543c0,0.321,0.242,0.644,0.645,0.644h1.53l0,0l1.128,8.537c0,0.806,0.644,1.53,1.53,1.53
	h14.174c0.806,0,1.449-0.645,1.529-1.45l1.128-8.617v-0.08h1.691c0.322,0,0.645-0.242,0.645-0.645v-3.543
	C26.419,10.483,26.178,10.242,25.855,10.242z M21.828,23.449v0.08c0,0.161-0.16,0.322-0.321,0.322H7.333
	c-0.161,0-0.322-0.161-0.322-0.402l-1.128-8.456h17.074L21.828,23.449z M25.211,13.785H3.789V11.45h21.503v2.335H25.211z"/>
</svg>
