<?xml version="1.0" encoding="utf-8"?>
<svg class="m-nav__icon__svg" version="1.1" id="Layer_1" xmlns="&ns_svg;" xmlns:xlink="&ns_xlink;" width="22" height="22" viewBox="0 0 22 22"
	 overflow="visible" enable-background="new 0 0 22 22" xml:space="preserve">
<g id="Mobile-Tussenstap">
	<g id="iPhone-6-klantmap-_x3E_-producten" transform="translate(-327.000000, -625.000000)">
		<g id="tabnav" transform="translate(0.000000, 618.000000)">
			<g id="mp-icon-nav-contact" transform="translate(328.000000, 8.000000)">
				<g>
					<path  d="M6.083,9.5c0,1.884,1.533,3.416,3.417,3.416c1.884,0,3.416-1.532,3.416-3.416
						c0-1.884-1.532-3.417-3.416-3.417C7.616,6.083,6.083,7.616,6.083,9.5z M7.083,9.5c0-1.333,1.084-2.417,2.417-2.417
						c1.332,0,2.416,1.084,2.416,2.417c0,1.332-1.084,2.416-2.416,2.416C8.167,11.916,7.083,10.832,7.083,9.5z"/>
				</g>
				<g>
					<path  d="M3.016,9.499c0,3.492,2.851,6.334,6.354,6.334c1.127,0,2.268-0.301,3.211-0.848
						c0.238-0.139,0.32-0.444,0.182-0.684c-0.139-0.238-0.444-0.32-0.684-0.182c-0.793,0.46-1.755,0.713-2.709,0.713
						c-2.953,0-5.354-2.393-5.354-5.334c0-2.94,2.388-5.333,5.322-5.333c1.97,0,3.57,0.583,4.63,1.686
						c0.854,0.889,1.344,2.116,1.344,3.368c0,1.308-0.604,2.696-1.726,2.696c-0.271,0-0.47-0.049-0.558-0.139
						c-0.105-0.106-0.102-0.338-0.1-0.524l0.001-4.254c0-0.276-0.224-0.5-0.5-0.5s-0.5,0.224-0.5,0.5v4.167
						c-0.005,0.365-0.012,0.91,0.387,1.314c0.285,0.289,0.713,0.436,1.27,0.436c1.579,0,2.726-1.555,2.726-3.696
						c0-1.507-0.591-2.987-1.622-4.061c-1.253-1.304-3.104-1.993-5.352-1.993C5.852,3.166,3.016,6.007,3.016,9.499z"/>
				</g>
				<g>
					<path  d="M15.75-0.584c-0.276,0-0.5,0.224-0.5,0.5v0.417c0,0.414-0.337,0.75-0.75,0.75s-0.75-0.336-0.75-0.75
						v-0.417c0-0.276-0.224-0.5-0.5-0.5h-2.5c-0.276,0-0.5,0.224-0.5,0.5v0.417c0,0.414-0.336,0.75-0.75,0.75s-0.75-0.336-0.75-0.75
						v-0.417c0-0.276-0.224-0.5-0.5-0.5h-2.5c-0.276,0-0.5,0.224-0.5,0.5v0.417c0,0.414-0.336,0.75-0.75,0.75s-0.75-0.336-0.75-0.75
						v-0.417c0-0.276-0.224-0.5-0.5-0.5h-2.5c-0.735,0-1.334,0.599-1.334,1.334v2.5c0,0.276,0.224,0.5,0.5,0.5h0.417
						c0.414,0,0.75,0.336,0.75,0.75s-0.336,0.75-0.75,0.75h-0.417c-0.276,0-0.5,0.224-0.5,0.5v2.5c0,0.276,0.224,0.5,0.5,0.5h0.417
						c0.414,0,0.75,0.336,0.75,0.75s-0.336,0.75-0.75,0.75h-0.417c-0.276,0-0.5,0.224-0.5,0.5v2.5c0,0.276,0.224,0.5,0.5,0.5h0.417
						c0.414,0,0.75,0.337,0.75,0.75s-0.336,0.75-0.75,0.75h-0.417c-0.276,0-0.5,0.224-0.5,0.5v2.5c0,0.735,0.599,1.334,1.334,1.334
						h2.5c0.276,0,0.5-0.224,0.5-0.5v-0.418c0-0.413,0.336-0.75,0.75-0.75s0.75,0.337,0.75,0.75v0.418c0,0.276,0.224,0.5,0.5,0.5
						h2.5c0.276,0,0.5-0.224,0.5-0.5v-0.418c0-0.413,0.336-0.75,0.75-0.75s0.75,0.337,0.75,0.75v0.418c0,0.276,0.224,0.5,0.5,0.5
						h2.5c0.276,0,0.5-0.224,0.5-0.5v-0.418c0-0.413,0.337-0.75,0.75-0.75s0.75,0.337,0.75,0.75v0.418c0,0.276,0.224,0.5,0.5,0.5
						h2.5c0.735,0,1.334-0.599,1.334-1.334v-2.5c0-0.276-0.224-0.5-0.5-0.5h-0.418c-0.413,0-0.75-0.337-0.75-0.75
						s0.337-0.75,0.75-0.75h0.418c0.276,0,0.5-0.224,0.5-0.5v-2.5c0-0.276-0.224-0.5-0.5-0.5h-0.418c-0.413,0-0.75-0.336-0.75-0.75
						s0.337-0.75,0.75-0.75h0.418c0.276,0,0.5-0.224,0.5-0.5v-2.5c0-0.276-0.224-0.5-0.5-0.5h-0.418c-0.413,0-0.75-0.336-0.75-0.75
						s0.337-0.75,0.75-0.75h0.418c0.276,0,0.5-0.224,0.5-0.5v-2.5c0-0.735-0.599-1.334-1.334-1.334H15.75z M18.25,0.416
						c0.185,0,0.334,0.15,0.334,0.334c0,0,0,1.388,0,2.017c-0.925,0.045-1.668,0.797-1.668,1.733s0.743,1.688,1.668,1.733
						c0,0.479,0,1.055,0,1.533c-0.925,0.045-1.668,0.797-1.668,1.733s0.743,1.688,1.668,1.733c0,0.479,0,1.055,0,1.533
						c-0.925,0.045-1.668,0.798-1.668,1.733s0.743,1.688,1.668,1.733c0,0.629,0,2.017,0,2.017c0,0.185-0.149,0.334-0.334,0.334
						c0,0-1.388,0-2.017,0c-0.045-0.925-0.798-1.668-1.733-1.668s-1.688,0.743-1.733,1.668c-0.479,0-1.055,0-1.533,0
						c-0.045-0.925-0.797-1.668-1.733-1.668s-1.688,0.743-1.733,1.668c-0.479,0-1.055,0-1.533,0
						c-0.045-0.925-0.797-1.668-1.733-1.668s-1.688,0.743-1.733,1.668c-0.629,0-2.017,0-2.017,0c-0.184,0-0.334-0.149-0.334-0.334
						c0,0,0-1.388,0-2.017c0.924-0.046,1.667-0.798,1.667-1.733s-0.743-1.688-1.667-1.733c0-0.479,0-1.055,0-1.533
						C1.34,11.188,2.083,10.436,2.083,9.5S1.34,7.813,0.416,7.767c0-0.478,0-1.055,0-1.533C1.34,6.188,2.083,5.436,2.083,4.5
						S1.34,2.813,0.416,2.767c0-0.629,0-2.017,0-2.017c0-0.184,0.15-0.334,0.334-0.334c0,0,1.388,0,2.017,0
						C2.813,1.34,3.564,2.083,4.5,2.083S6.188,1.34,6.233,0.416c0.478,0,1.055,0,1.533,0C7.813,1.34,8.564,2.083,9.5,2.083
						s1.688-0.743,1.733-1.667c0.479,0,1.055,0,1.533,0c0.046,0.924,0.798,1.667,1.733,1.667s1.688-0.743,1.733-1.667
						C16.862,0.416,18.25,0.416,18.25,0.416z"/>
				</g>
			</g>
		</g>
	</g>
</g>
</svg>
