<!DOCTYPE svg PUBLIC "-//W3C//DTD SVG 1.1//EN"
    "http://www.w3.org/Graphics/SVG/1.1/DTD/svg11.dtd">
<svg version="1.1"
  baseProfile="full"
  xmlns="http://www.w3.org/2000/svg"
  xmlns:xlink="http://www.w3.org/1999/xlink"
  xmlns:ev="http://www.w3.org/2001/xml-events"
  viewBox="-9.5 -3 75 75"
  height="75" width="75"
  class="m-overview-blocks__icon__svg">

<g id="tablet"><g id="iPad-dashboard-mvp-02" transform="translate(-380.000000, -193.000000)"><g id="mp-icon-wijzig-gegevens" transform="translate(380.000000, 192.000000)">
			<g id="Group-3" transform="translate(10.208333, 0.697813)">
				<g id="Clip-2">
				</g>
				<defs>
					<filter id="Adobe_OpacityMaskFilter" filterUnits="userSpaceOnUse" x="-0.6" y="-0.3" width="36.1" height="40.1">
						<feColorMatrix  type="matrix" values="1 0 0 0 0  0 1 0 0 0  0 0 1 0 0  0 0 0 1 0"/>
					</filter>
				</defs>
				<mask maskUnits="userSpaceOnUse" x="-0.6" y="-0.3" width="36.1" height="40.1" id="mask-2">
					<g class="st0">
						<polygon id="path-1" class="st3" points="35.6,-0.3 -0.6,-0.3 -0.6,39.8 35.6,39.8 						"/>
					</g>
				</mask>
				<path id="Fill-1" class="st1" d="M17.4,2.7c-8,0-14.9,6.7-14.9,14.3c0,9.6,7.7,19.8,14.9,19.8c7.2,0,15.2-10.4,15.2-19.8
					C32.6,9.5,25.3,2.7,17.4,2.7 M17.4,39.8c-9.9,0-17.9-12.5-17.9-22.8c0-9.2,8.4-17.3,17.9-17.3c9.7,0,18.2,8.1,18.2,17.3
					C35.6,27.2,27.2,39.8,17.4,39.8"/>
			</g>
			<path id="Fill-4" class="st2" d="M42.8,20.6c0,0-0.1,0-0.1,0c-5.6-0.5-8.7-4-10.4-6.8c-4.7,6.4-19.3,6.8-21.1,6.8h0
				c-0.8,0-1.5-0.7-1.5-1.5c0-0.8,0.7-1.5,1.5-1.5c5.2,0,18.8-1.5,19.6-7.7c0.1-0.7,0.7-1.3,1.4-1.3c0.7-0.1,1.4,0.4,1.6,1.1
				c0.1,0.3,2.2,7.4,9.2,8c0.8,0.1,1.4,0.8,1.4,1.6C44.2,20.1,43.5,20.6,42.8,20.6"/>
			<path id="Fill-6" class="st2" d="M51.8,70.3H3.6c-2.5,0-4.5-2-4.5-4.5v-4.5c0-10.8,16.9-15.6,20.2-16.4c0.8-1.1,2.7-4.3,1.1-6.9
				c-0.4-0.7-0.2-1.6,0.5-2.1c0.7-0.4,1.6-0.2,2.1,0.5c3.1,5.1-1.4,10.6-1.6,10.8c-0.2,0.3-0.5,0.4-0.8,0.5
				c-0.2,0-18.4,4.3-18.4,13.6v4.5c0,0.8,0.7,1.5,1.5,1.5h48.2c0.8,0,1.5-0.7,1.5-1.5v-4.5c0-9.3-18.5-13.5-18.7-13.6
				c-0.3-0.1-0.6-0.3-0.8-0.5c-0.2-0.2-4.5-5.7-1.5-10.8c0.4-0.7,1.4-0.9,2.1-0.5c0.7,0.4,0.9,1.4,0.5,2.1c-1.6,2.6,0.2,5.8,0.9,6.9
				c3.4,0.8,20.5,5.6,20.5,16.4v4.5C56.3,68.3,54.3,70.3,51.8,70.3"/>
			<path id="Fill-8" class="st2" d="M27.7,58.3c-5.8,0-10.5-4.7-10.5-10.5c0-0.8,0.7-1.5,1.5-1.5c0.8,0,1.5,0.7,1.5,1.5
				c0,4.2,3.4,7.5,7.5,7.5c4.2,0,7.5-3.4,7.5-7.5c0-0.8,0.7-1.5,1.5-1.5c0.8,0,1.5,0.7,1.5,1.5C38.3,53.6,33.5,58.3,27.7,58.3"/>
		</g>
	</g>
</g>
</svg>
