<!DOCTYPE svg PUBLIC "-//W3C//DTD SVG 1.1//EN"
    "http://www.w3.org/Graphics/SVG/1.1/DTD/svg11.dtd">
<svg version="1.1"
  baseProfile="full"
  xmlns="http://www.w3.org/2000/svg"
  xmlns:xlink="http://www.w3.org/1999/xlink"
  xmlns:ev="http://www.w3.org/2001/xml-events"
  viewBox="0 -2.5 75 75"
  height="75" width="75"
  class="m-overview-blocks__icon__svg">

<g id="tablet">
	<g id="iPad-dashboard-mvp-02" transform="translate(-112.000000, -389.000000)">
		<g id="mp-icon-mijn-producten" transform="translate(112.000000, 389.000000)">
			<g id="Group-3">
				<g id="Clip-2">
				</g>
				<defs>
					<filter id="Adobe_OpacityMaskFilter" filterUnits="userSpaceOnUse" x="0" y="0" width="74.9" height="70">
						<feColorMatrix  type="matrix" values="1 0 0 0 0  0 1 0 0 0  0 0 1 0 0  0 0 0 1 0"/>
					</filter>
				</defs>
				<mask maskUnits="userSpaceOnUse" x="0" y="0" width="74.9" height="70" id="mask-2">
					<g class="st0">
						<polygon id="path-1" class="st3" points="74.9,35 74.9,0 0,0 0,35 0,70 74.9,70 						"/>
					</g>
				</mask>
				<path id="Fill-1" class="st1" d="M3.3,44.3v20.9c0,0.9,0.7,1.6,1.6,1.6H70c0.9,0,1.6-0.7,1.6-1.6V44.3l-15.4-40
					c-0.2-0.6-0.9-1-1.5-1H20.1c-0.7,0-1.3,0.4-1.5,1L3.3,44.3z M70,70H4.9C2.2,70,0,67.8,0,65.1V43.7l0.1-0.3L15.6,3.1
					C16.3,1.3,18.1,0,20.1,0h34.6c2,0,3.8,1.3,4.6,3.1l15.6,40.5v21.5C74.9,67.8,72.7,70,70,70L70,70z"/>
			</g>
			<path id="Fill-4" class="st2" d="M46.2,53.7H28.7c-2.3,0-4.3-1.7-4.8-3.9l-0.8-4.2H3.3c-0.9,0-1.6-0.7-1.6-1.6s0.7-1.6,1.6-1.6
				h19.8c1.5,0,2.9,1.1,3.2,2.6l0.8,4.2c0.2,0.8,0.8,1.3,1.6,1.3h17.5c0.8,0,1.4-0.5,1.6-1.3l0.8-4.2c0.3-1.5,1.6-2.6,3.2-2.6h19.8
				c0.9,0,1.6,0.7,1.6,1.6s-0.7,1.6-1.6,1.6H51.8L51,49.8C50.5,52.1,48.5,53.7,46.2,53.7"/>
			<path id="Fill-6" class="st2" d="M55.3,16.3h-3.3v-4.9c0-0.9-0.7-1.6-1.6-1.6h-26c-0.9,0-1.6,0.7-1.6,1.6v4.9h-3.3v-4.9
				c0-2.7,2.2-4.9,4.9-4.9h26c2.7,0,4.9,2.2,4.9,4.9V16.3z"/>
			<path id="Fill-8" class="st2" d="M58.6,24.4h-3.3v-4.9c0-0.9-0.7-1.6-1.6-1.6H21.2c-0.9,0-1.6,0.7-1.6,1.6v4.9h-3.3v-4.9
				c0-2.7,2.2-4.9,4.9-4.9h32.6c2.7,0,4.9,2.2,4.9,4.9V24.4z"/>
			<path id="Fill-10" class="st2" d="M61.9,32.6h-3.3v-4.9c0-0.9-0.7-1.6-1.6-1.6H17.9c-0.9,0-1.6,0.7-1.6,1.6v4.9H13v-4.9
				c0-2.7,2.2-4.9,4.9-4.9H57c2.7,0,4.9,2.2,4.9,4.9V32.6z"/>
			<path id="Fill-12" class="st2" d="M65.1,40.7h-3.3v-4.9c0-0.9-0.7-1.6-1.6-1.6H14.7c-0.9,0-1.6,0.7-1.6,1.6v4.9H9.8v-4.9
				c0-2.7,2.2-4.9,4.9-4.9h45.6c2.7,0,4.9,2.2,4.9,4.9V40.7z"/>
		</g>
	</g>
</g>
</svg>

