<?xml version="1.0" encoding="utf-8"?>
<svg class="m-nav__icon__svg" version="1.1" id="Layer_1" xmlns="&ns_svg;" xmlns:xlink="&ns_xlink;" width="17" height="22" viewBox="0 0 17 22"
	 overflow="visible" enable-background="new 0 0 17 22" xml:space="preserve">
<g id="Mobile-Tussenstap">
	<g id="iPhone-6-klantmap-_x3E_-producten" transform="translate(-253.000000, -625.000000)">
		<g id="tabnav" transform="translate(0.000000, 618.000000)">
			<g id="mp-icon-nav-betalingen" transform="translate(254.000000, 8.000000)">
				<g>
					<path d="M0.257-0.609c-0.228,0-0.413,0.185-0.413,0.413v19.394c0,0.228,0.185,0.412,0.413,0.412h14.485
						c0.228,0,0.412-0.185,0.412-0.412V-0.197c0-0.228-0.185-0.413-0.412-0.413H0.257z M14.33,0.216c0,0.773,0,17.796,0,18.569
						c-0.756,0-12.904,0-13.66,0c0-0.773,0-17.796,0-18.569C1.426,0.216,13.574,0.216,14.33,0.216z"/>
				</g>
				<g>
					<path d="M3.217,4.042c-0.228,0-0.413,0.185-0.413,0.413s0.185,0.413,0.413,0.413h6.956
						c0.228,0,0.412-0.185,0.412-0.413S10.4,4.042,10.173,4.042H3.217z"/>
				</g>
				<g>
					<path d="M3.217,6.718c-0.228,0-0.413,0.185-0.413,0.413s0.185,0.413,0.413,0.413h3.478
						c0.228,0,0.413-0.185,0.413-0.413S6.923,6.718,6.695,6.718H3.217z"/>
				</g>
				<g>
					<path d="M3.217,9.393c-0.228,0-0.413,0.185-0.413,0.413s0.185,0.413,0.413,0.413h3.478
						c0.228,0,0.413-0.185,0.413-0.413S6.923,9.393,6.695,9.393H3.217z"/>
				</g>
				<g>
					<path d="M3.217,12.068c-0.228,0-0.413,0.185-0.413,0.412s0.185,0.412,0.413,0.412h2.609
						c0.228,0,0.413-0.185,0.413-0.412s-0.185-0.412-0.413-0.412H3.217z"/>
				</g>
				<path id="Fill-7" d="M11.064,8.795C10.195,8.79,9.65,9.318,9.428,10.38l2.082,0.014l-0.003,0.51l-2.14-0.014
					l-0.01,0.227l-0.002,0.254l0.006,0.178l1.891,0.012l-0.002,0.512l-1.826-0.014c0.098,0.477,0.283,0.846,0.559,1.107
					c0.273,0.262,0.643,0.395,1.106,0.398c0.425,0.002,0.846-0.082,1.264-0.254l-0.005,0.594c-0.398,0.168-0.831,0.252-1.297,0.248
					c-0.645-0.004-1.162-0.186-1.553-0.543c-0.392-0.357-0.647-0.875-0.768-1.555l-0.679-0.004l0.004-0.512l0.62,0.004l-0.007-0.166
					l0.001-0.174l0.011-0.316l-0.62-0.004l0.002-0.512l0.67,0.006C8.844,9.688,9.1,9.152,9.5,8.769
					c0.4-0.383,0.923-0.572,1.568-0.568c0.547,0.004,1.045,0.135,1.492,0.394l-0.294,0.548C11.816,8.913,11.416,8.797,11.064,8.795"
					/>
			</g>
		</g>
	</g>
</g>
</svg>
