<?xml version="1.0" encoding="utf-8"?>
<!-- Generator: Adobe Illustrator 12.0.0, SVG Export Plug-In . SVG Version: 6.00 Build 51448)  -->
<!DOCTYPE svg PUBLIC "-//W3C//DTD SVG 1.1//EN" "http://www.w3.org/Graphics/SVG/1.1/DTD/svg11.dtd" [
	<!ENTITY ns_svg "http://www.w3.org/2000/svg">
	<!ENTITY ns_xlink "http://www.w3.org/1999/xlink">
]>
<svg  version="1.1" id="Layer_1" xmlns="&ns_svg;" xmlns:xlink="&ns_xlink;" width="25" height="24" viewBox="0 0 25 24"
	 overflow="visible" enable-background="new 0 0 25 24" xml:space="preserve">
<title>mp-icon-nav-gegevens</title>
<desc>Created with Sketch.</desc>
<g id="Mobile-Tussenstap">
	<g id="iPhone-6-klantmap-_x3E_-producten" transform="translate(-104.000000, -625.000000)">
		<g id="tabnav" transform="translate(0.000000, 618.000000)">
			<g id="mp-icon-nav-gegevens" transform="translate(105.000000, 7.000000)">
				<g>
					<path fill="#939393" d="M18.049,12.385l-5.346,5.346c-0.061,0.06-0.104,0.135-0.127,0.216l-0.824,2.88
						c-0.05,0.175-0.001,0.362,0.127,0.491s0.316,0.177,0.491,0.127l2.879-0.823c0.081-0.023,0.155-0.066,0.216-0.127l5.348-5.346
						c0.094-0.094,0.146-0.221,0.146-0.354s-0.053-0.26-0.146-0.354l-2.057-2.057C18.561,12.189,18.244,12.189,18.049,12.385z
						 M18.402,13.445c0.384,0.385,0.965,0.965,1.35,1.35c-0.605,0.605-4.737,4.735-4.902,4.9c-0.156,0.045-1.095,0.313-1.889,0.54
						c0.228-0.795,0.496-1.733,0.541-1.89C13.667,18.181,17.797,14.051,18.402,13.445z"/>
				</g>
				<g>
					
						<rect x="16.332" y="14.911" transform="matrix(-0.7068 -0.7074 0.7074 -0.7068 19.4527 38.8853)" fill="#939393" width="2.907" height="1"/>
				</g>
				<g id="Group-8">
					<g>
						<path fill="#939393" d="M12.703,17.73c-0.195,0.195-0.195,0.512,0,0.707l2.055,2.057c0.195,0.195,0.512,0.195,0.707,0
							s0.195-0.512,0-0.707L13.41,17.73C13.215,17.535,12.898,17.535,12.703,17.73z"/>
					</g>
					<g>
						<path fill="#939393" d="M9.595,1.605C8.492,1.606,7.207,1.94,6.674,2.753C6.22,2.726,5.857,2.84,5.603,3.114
							C5.344,3.393,5.258,3.771,5.258,4.162c0,0.515,0.15,1.052,0.251,1.414C5.353,5.803,5.256,6.129,5.256,6.57
							c0,0.505,0.143,0.829,0.346,1.049c0.079,1.474,0.771,2.218,1.196,2.515c0,0.331,0,1.027,0,1.432
							c-0.438,0.159-1.681,0.61-1.681,0.61c-1.754,0.591-3.269,1.101-3.583,2.049c-0.408,1.229-0.49,3.368-0.493,3.459
							c0,0.006,0,0.012,0,0.018c0,0.129,0.05,0.254,0.14,0.347c0.094,0.098,0.224,0.153,0.36,0.153h8.636v-1c0,0-7.168,0-8.104,0
							c0.046-0.684,0.157-1.896,0.411-2.662c0.157-0.474,1.773-1.019,2.953-1.416l2.056-0.748c0.198-0.072,0.306-0.25,0.306-0.46
							V9.86c0-0.196-0.123-0.378-0.302-0.459C7.458,9.384,6.564,8.961,6.564,7.393c0-0.176-0.106-0.305-0.245-0.394
							C6.279,6.917,6.257,6.747,6.257,6.57c0-0.169,0.023-0.323,0.06-0.409c0.045-0.02,0.107-0.006,0.141-0.048
							C6.532,6.022,6.574,5.94,6.574,5.837c0-0.028-0.003-0.058-0.01-0.09L6.474,5.312C6.31,4.728,6.254,4.359,6.254,4.128
							c0-0.188,0.037-0.285,0.082-0.334c0.043-0.047,0.196-0.081,0.481-0.023c0.262,0.053,0.52-0.11,0.584-0.37
							c0.11-0.445,1.074-0.794,2.194-0.796c1.127-0.001,2.098,0.349,2.21,0.797c0.16,0.649-0.16,1.386-0.331,1.782l-0.153,0.505
							c-0.043,0.144,0.012,0.231,0.097,0.354c0.084,0.125,0.253,0.133,0.403,0.146l0.011,0.001c0.029,0.014,0.106,0.143,0.106,0.351
							c0,0.208-0.077,0.337-0.106,0.351c-0.258,0.022-0.511,0.242-0.511,0.501c0,1.569-0.895,1.991-0.933,2.008
							c-0.179,0.081-0.302,0.263-0.302,0.459v2.056c0,0.204,0.159,0.4,0.348,0.476l2.289,0.925l1.763,0.719l0.314-0.949l-1.688-0.69
							c0,0-1.52-0.612-2.026-0.816c0-0.396,0-1.111,0-1.445c0.419-0.292,1.092-1.027,1.188-2.458
							c0.375-0.21,0.664-0.574,0.664-1.135l-0.234-0.856c-0.068-0.106-0.166-0.172-0.258-0.247c0.172-0.402,0.403-0.982,0.403-1.652
							c0-0.204-0.022-0.414-0.074-0.625C12.488,2.01,10.882,1.604,9.595,1.605z M5.662,5.403C5.756,5.28,5.909,5.248,6.064,5.248
							c-0.189,0-0.318,0.132-0.445,0.263C5.637,5.475,5.635,5.438,5.662,5.403z M5.677,7.664c0.118,0.1,0.223,0.229,0.388,0.229
							C5.894,7.893,5.767,7.793,5.677,7.664z M12.188,7.718c-0.092,0.104-0.216,0.174-0.365,0.174
							C11.97,7.893,12.062,7.773,12.188,7.718z"/>
					</g>
				</g>
			</g>
		</g>
	</g>
</g>
</svg>
