<!DOCTYPE svg PUBLIC "-//W3C//DTD SVG 1.1//EN"
    "http://www.w3.org/Graphics/SVG/1.1/DTD/svg11.dtd">
<svg version="1.1"
  baseProfile="full"
  xmlns="http://www.w3.org/2000/svg"
  xmlns:xlink="http://www.w3.org/1999/xlink"
  xmlns:ev="http://www.w3.org/2001/xml-events"
  viewBox="-0.3 -0.5 24 24"
  height="24" width="24"
  class="m-message__icon__svg">

<g id="miu">
	<g id="Artboard-1" transform="translate(-719.000000, -407.000000)">
		<g id="slice" transform="translate(215.000000, 119.000000)">
		</g>
		<g>
			<path d="M720.5,408.5c-0.8,0-1.5,0.7-1.5,1.5v13c0,0.8,0.7,1.5,1.5,1.5c0,0,1.4,0,1.8,0c0.3,0.3,2.7,3.1,2.7,3.1
				c0.3,0.3,0.6,0.5,1,0.5c0.4,0,0.8-0.2,1-0.5c0,0,2.4-2.8,2.7-3.1c0.4,0,10.8,0,10.8,0c0.8,0,1.5-0.7,1.5-1.5v-13
				c0-0.8-0.7-1.5-1.5-1.5H720.5z M720,423v-13c0-0.3,0.2-0.5,0.5-0.5h20c0.3,0,0.5,0.2,0.5,0.5v13c0,0.3-0.2,0.5-0.5,0.5h-11.2
				l-3,3.4c-0.1,0.1-0.2,0.1-0.3,0.1c-0.1,0-0.2,0-0.3-0.1l-3-3.4h-2.2C720.2,423.5,720,423.3,720,423z"/>
			<path d="M720,409.5v14c0,0,2.4,0,2.8,0c0.3,0.3,3.2,3.8,3.2,3.8s3.2-3.5,3.5-3.8c0.4,0,11.6,0,11.6,0v-14H720z M740,410.5
				c0,0.9,0,11.1,0,12c-0.9,0-11,0-11,0s-2.4,2.6-3,3.3c-0.6-0.7-2.7-3.3-2.7-3.3s-1.6,0-2.3,0c0-0.9,0-11.1,0-12
				C721.9,410.5,739.1,410.5,740,410.5z"/>
			<path d="M723.7,412.5c-0.4,0-0.7,0.3-0.7,0.7v0.6c0,0.4,0.3,0.7,0.7,0.7h12.6c0.4,0,0.7-0.3,0.7-0.7v-0.6c0-0.4-0.3-0.7-0.7-0.7
				H723.7z M736,413.5c-0.5,0-11.5,0-12,0C724.5,413.5,735.5,413.5,736,413.5z"/>
			<path d="M723.7,415.5c-0.4,0-0.7,0.3-0.7,0.7v0.6c0,0.4,0.3,0.7,0.7,0.7h12.6c0.4,0,0.7-0.3,0.7-0.7v-0.6c0-0.4-0.3-0.7-0.7-0.7
				H723.7z M736,416.5c-0.5,0-11.5,0-12,0C724.5,416.5,735.5,416.5,736,416.5z"/>
			<path d="M723.7,418.5c-0.4,0-0.7,0.3-0.7,0.7v0.6c0,0.4,0.3,0.7,0.7,0.7h8.6c0.4,0,0.7-0.3,0.7-0.7v-0.6c0-0.4-0.3-0.7-0.7-0.7
				H723.7z M732,419.5c-0.5,0-7.5,0-8,0C724.5,419.5,731.5,419.5,732,419.5z"/>
		</g>
	</g>
</g>
</svg>
