<!DOCTYPE svg PUBLIC "-//W3C//DTD SVG 1.1//EN"
    "http://www.w3.org/Graphics/SVG/1.1/DTD/svg11.dtd">
<svg version="1.1"
  baseProfile="full"
  xmlns="http://www.w3.org/2000/svg"
  xmlns:xlink="http://www.w3.org/1999/xlink"
  xmlns:ev="http://www.w3.org/2001/xml-events"
  viewBox="1.5 -2.5 75 75"
  height="75" width="75"
  class="m-overview-blocks__icon__svg">

<g id="icon-extern" transform="translate(371.000000, 389.000000)">
	<path id="Fill-1_1_" class="st0" d="M-303.1-322.5h-58.1v-14.8l7-12.6h44l7,12.6v14.8H-303.1z M-344.3-357.8c0-4.9,3.9-8.9,8.8-8.9
		h1.9v9.1c0,0.8,0.7,1.5,1.5,1.5c0.8,0,1.5-0.7,1.5-1.5v-9.1h3.3c4.9,0,8.9,4,8.9,8.9v4.8h-26v-4.8H-344.3z M-339.7-378.8
		c0-4.2,3.4-7.6,7.6-7.6s7.6,3.4,7.6,7.6c0,4.2-3.4,7.6-7.6,7.6S-339.7-374.7-339.7-378.8L-339.7-378.8z M-300.2-338.5l-7.6-13.7
		c-0.3-0.5-0.8-0.8-1.3-0.8h-6.1v-4.8c0-6.4-5.1-11.6-11.4-11.9c3.1-1.9,5.3-5.3,5.3-9.2c0-5.9-4.8-10.7-10.7-10.7
		c-5.9,0-10.7,4.8-10.7,10.7c0,4,2.3,7.5,5.5,9.3c-5.7,0.9-10.1,5.8-10.1,11.7v4.8h-7.6c-0.6,0-1.1,0.3-1.3,0.8l-7.6,13.7
		c-0.1,0.2-0.2,0.5-0.2,0.7v16.7c0,0.8,0.7,1.5,1.5,1.5h61.1c0.8,0,1.5-0.7,1.5-1.5v-16.7C-300-338-300.1-338.3-300.2-338.5
		L-300.2-338.5z"/>
	<path id="Fill-3_1_" class="st0" d="M-322.9-362.1h-4.6c-0.8,0-1.5,0.7-1.5,1.5c0,0.8,0.7,1.5,1.5,1.5h4.6c0.8,0,1.5-0.7,1.5-1.5
		C-321.4-361.4-322.1-362.1-322.9-362.1"/>
	<path id="Fill-5" class="st0" d="M-347.4-340.8c0,0.8-0.7,1.5-1.5,1.5c-0.8,0-1.5-0.7-1.5-1.5v-1.5h3.1v1.5H-347.4z M-345.8-345.4
		h-6.1c-0.8,0-1.5,0.7-1.5,1.5v3c0,2.5,2.1,4.6,4.6,4.6s4.6-2,4.6-4.6v-3C-344.3-344.7-345-345.4-345.8-345.4L-345.8-345.4z"/>
	<path id="Fill-7" class="st0" d="M-318.3-343.8h-18.3c-0.8,0-1.5,0.7-1.5,1.5s0.7,1.5,1.5,1.5h18.3c0.8,0,1.5-0.7,1.5-1.5
		S-317.5-343.8-318.3-343.8"/>
</g>
</svg>
