<!DOCTYPE svg PUBLIC "-//W3C//DTD SVG 1.1//EN"
    "http://www.w3.org/Graphics/SVG/1.1/DTD/svg11.dtd">
<svg version="1.1"
  baseProfile="full"
  xmlns="http://www.w3.org/2000/svg"
  xmlns:xlink="http://www.w3.org/1999/xlink"
  xmlns:ev="http://www.w3.org/2001/xml-events"
	viewBox="1.5 -2.5 75 75"
	height="75" width="75"
	class="m-overview-blocks__icon__svg">

<g id="tablet">
  <g transform="translate(-109.000000, -192.000000)" id="iPad-dashboard-mvp-02">
    <g transform="translate(109.000000, 192.000000)" id="mp-icon-schademelden">
      <path d="M38.9,20.6c-0.9,0-1.7,0.8-1.7,1.7v21.1c0,0.9,0.7,1.7,1.7,1.7c0.9,0,1.7-0.8,1.7-1.7V22.3
        C40.5,21.4,39.8,20.6,38.9,20.6L38.9,20.6z" class="st0" id="Fill-1"/>
      <path d="M38.9,49.4c-0.9,0-1.7,0.8-1.7,1.7v3.4c0,0.9,0.7,1.7,1.7,1.7c0.9,0,1.7-0.8,1.7-1.7v-3.4
        C40.5,50.2,39.8,49.4,38.9,49.4L38.9,49.4z" class="st0" id="Fill-2"/>
      <path d="M43.4,3.6C42.4,2,40.7,1,38.9,1c-1.9,0-3.6,1-4.5,2.6L2.1,60.2c-0.9,1.7-0.9,3.6,0,5.2
        C3,67.1,4.7,68,6.6,68h64.5c1.9,0,3.6-0.9,4.5-2.6c0.9-1.7,0.9-3.6,0-5.2L43.4,3.6z M72.8,63.8c-0.2,0.3-0.7,0.9-1.6,0.9H6.6
        c-1,0-1.5-0.6-1.6-0.9c-0.2-0.3-0.5-1,0-1.9L37.2,5.3c0.5-0.9,1.3-0.9,1.6-0.9c0.3,0,1.1,0.1,1.6,1L72.7,62
        C73.2,62.8,72.9,63.5,72.8,63.8L72.8,63.8z" class="st0" id="Fill-3"/>
    </g>
  </g>
</g>
</svg>
