<?xml version="1.0" encoding="utf-8"?>
<!-- Generator: Adobe Illustrator 12.0.0, SVG Export Plug-In . SVG Version: 6.00 Build 51448)  -->
<!DOCTYPE svg PUBLIC "-//W3C//DTD SVG 1.1//EN" "http://www.w3.org/Graphics/SVG/1.1/DTD/svg11.dtd" [
	<!ENTITY ns_svg "http://www.w3.org/2000/svg">
	<!ENTITY ns_xlink "http://www.w3.org/1999/xlink">
]>
<svg  version="1.1" id="Layer_1" xmlns="&ns_svg;" xmlns:xlink="&ns_xlink;" width="22" height="22" viewBox="0 0 22 22"
	 style="overflow:visible;enable-background:new 0 0 22 22;" xml:space="preserve">
<path d="M22,17.4c0,0.3-0.1,0.6-0.2,1.1c-0.1,0.5-0.2,0.8-0.3,1.1c-0.2,0.5-0.9,1.1-1.9,1.7c-1,0.5-1.9,0.8-2.9,0.8
	c-0.3,0-0.6,0-0.8-0.1c-0.3,0-0.6-0.1-0.9-0.2c-0.3-0.1-0.6-0.2-0.7-0.2c-0.2-0.1-0.5-0.2-0.9-0.3C13,21,12.7,21,12.6,20.9
	c-1-0.4-1.9-0.8-2.7-1.3c-1.3-0.8-2.7-1.9-4.1-3.4c-1.4-1.4-2.5-2.8-3.4-4.1c-0.5-0.8-0.9-1.7-1.3-2.7C1,9.3,1,9,0.8,8.6
	C0.6,8.2,0.5,7.9,0.5,7.8C0.4,7.6,0.3,7.3,0.3,7C0.2,6.7,0.1,6.4,0.1,6.1C0,5.9,0,5.6,0,5.3c0-1,0.3-1.9,0.8-2.9
	c0.6-1.1,1.1-1.7,1.7-1.9c0.3-0.1,0.6-0.2,1.1-0.3C4,0.1,4.3,0,4.6,0C4.8,0,4.9,0,5,0c0.2,0.1,0.5,0.5,0.8,1.2
	c0.1,0.2,0.3,0.5,0.5,0.8c0.2,0.4,0.4,0.7,0.5,1C7,3.4,7.1,3.6,7.3,3.9c0,0,0.1,0.2,0.3,0.4c0.2,0.2,0.3,0.4,0.3,0.6
	C8,5,8,5.2,8,5.3c0,0.2-0.1,0.5-0.4,0.8c-0.3,0.3-0.6,0.6-1,0.9c-0.3,0.3-0.7,0.5-1,0.8C5.3,8.1,5.2,8.3,5.2,8.5
	c0,0.1,0,0.2,0.1,0.4C5.3,9,5.3,9.1,5.4,9.2s0.1,0.2,0.2,0.4c0.1,0.2,0.2,0.3,0.2,0.3c0.8,1.4,1.7,2.7,2.7,3.7c1,1,2.2,1.9,3.7,2.7
	c0,0,0.1,0.1,0.3,0.2c0.2,0.1,0.3,0.2,0.4,0.2c0.1,0,0.2,0.1,0.3,0.1c0.1,0.1,0.3,0.1,0.4,0.1c0.2,0,0.4-0.1,0.7-0.4
	c0.3-0.3,0.6-0.6,0.8-1c0.3-0.3,0.5-0.7,0.9-1c0.3-0.3,0.6-0.4,0.8-0.4c0.1,0,0.3,0,0.4,0.1c0.2,0.1,0.3,0.2,0.6,0.3
	c0.2,0.2,0.3,0.2,0.4,0.3c0.3,0.2,0.5,0.3,0.8,0.5c0.3,0.2,0.6,0.3,1,0.5c0.4,0.2,0.6,0.4,0.8,0.5c0.7,0.4,1.1,0.6,1.2,0.8
	C22,17.1,22,17.2,22,17.4z"/>
</svg>
