<?xml version="1.0" encoding="utf-8"?>
<!-- Generator: Adobe Illustrator 18.1.1, SVG Export Plug-In . SVG Version: 6.00 Build 0)  -->
<svg version="1.1" id="Layer_1" xmlns="http://www.w3.org/2000/svg" xmlns:xlink="http://www.w3.org/1999/xlink" x="0px" y="0px"
	 width="172px" height="120px" viewBox="122 -108 172 120" enable-background="new 122 -108 172 120" xml:space="preserve">
<linearGradient id="SVGID_1_" gradientUnits="userSpaceOnUse" x1="208" y1="-41.6575" x2="208" y2="53.1483">
	<stop  offset="0.1" style="stop-color:#FFFFFF"/>
	<stop  offset="0.4" style="stop-color:#FFFFFF;stop-opacity:0"/>
</linearGradient>
<rect x="122" y="-108" fill="url(#SVGID_1_)" width="172" height="120"/>
<g>
	<g>
		<g>
			<g>
				<linearGradient id="SVGID_2_" gradientUnits="userSpaceOnUse" x1="208" y1="-78.0146" x2="208" y2="-35.4327">
					<stop  offset="0" style="stop-color:#244A95"/>
					<stop  offset="1" style="stop-color:#26326E"/>
				</linearGradient>
				<path fill-rule="evenodd" clip-rule="evenodd" fill="url(#SVGID_2_)" d="M128.3-78h159.3v42.6c-53.4-17.4-106.5-17.5-159.3,0
					V-78"/>
			</g>
			<g>
				<path fill="#FFFFFF" d="M139.3-70.6c-0.9,0-1.5,0.3-2.1,0.8c-0.5,0.5-0.8,1.1-0.8,1.8c0,0.7,0.2,1.3,0.6,1.7
					c0.4,0.4,0.9,0.8,1.6,1.2c0.6,0.4,1.3,0.7,2,1c0.7,0.3,1.4,0.7,2,1.2c0.6,0.5,1.2,1.1,1.6,1.7c0.4,0.7,0.6,1.6,0.6,2.6
					c0,0.9-0.2,1.8-0.5,2.6c-0.4,0.8-0.9,1.4-1.5,2c-0.6,0.6-1.4,1-2.3,1.3c-0.9,0.3-1.9,0.4-3,0.4c-1,0-1.9-0.1-2.7-0.3
					c-0.8-0.2-1.4-0.5-1.8-0.8c0.2-0.7,0.3-1.3,0.5-1.8c0.1-0.5,0.2-1.1,0.3-1.8h0.5c0.1,0.4,0.2,0.8,0.4,1.2c0.2,0.4,0.5,0.7,0.8,1
					c0.3,0.3,0.7,0.5,1.1,0.7c0.4,0.2,0.9,0.2,1.5,0.2c1.1,0,1.9-0.3,2.5-0.8c0.5-0.6,0.8-1.2,0.8-2c0-0.7-0.2-1.3-0.6-1.7
					c-0.4-0.5-0.9-0.8-1.5-1.2c-0.6-0.3-1.3-0.7-2-1c-0.7-0.3-1.4-0.7-2-1.2c-0.6-0.5-1.1-1-1.5-1.7c-0.4-0.7-0.6-1.6-0.6-2.6
					c0-1,0.2-1.8,0.5-2.6c0.3-0.8,0.8-1.4,1.4-1.9c0.6-0.5,1.2-0.9,2-1.2c0.7-0.3,1.5-0.4,2.4-0.4c1,0,1.9,0.1,2.6,0.4
					c0.7,0.2,1.4,0.6,1.9,1c-0.2,0.4-0.3,0.8-0.4,1.3c-0.1,0.4-0.3,0.9-0.5,1.5h-0.4C142-69.8,140.9-70.6,139.3-70.6z"/>
				<path fill="#FFFFFF" d="M163.4-54.6c-0.1,0.4-0.2,0.8-0.2,1.2c-1.5,0.8-3.4,1.2-5.7,1.2c-1.6,0-3-0.2-4.3-0.7
					c-1.3-0.5-2.3-1.1-3.2-1.9c-0.9-0.8-1.5-1.8-2-3c-0.5-1.1-0.7-2.4-0.7-3.7c0-2,0.3-3.6,0.9-5c0.6-1.4,1.4-2.5,2.4-3.3
					c1-0.9,2.2-1.5,3.5-1.9c1.3-0.4,2.7-0.6,4.2-0.6c0.5,0,1,0,1.5,0.1c0.5,0.1,1.1,0.2,1.6,0.3c0.5,0.1,1,0.3,1.4,0.4
					c0.5,0.2,0.8,0.3,1.1,0.5c-0.2,0.5-0.3,0.9-0.4,1.4c-0.1,0.5-0.2,1-0.2,1.5H163c-0.7-0.9-1.4-1.5-2.2-1.9
					c-0.7-0.4-1.6-0.6-2.6-0.6c-0.7,0-1.5,0.2-2.2,0.5c-0.7,0.3-1.4,0.9-2,1.5c-0.6,0.7-1.1,1.6-1.5,2.7c-0.4,1.1-0.6,2.4-0.6,3.9
					c0,1.4,0.2,2.7,0.6,3.7c0.4,1,0.9,1.9,1.5,2.5c0.6,0.6,1.3,1.1,2.1,1.4c0.8,0.3,1.6,0.4,2.4,0.4c0.4,0,0.9-0.1,1.4-0.2
					c0.5-0.1,0.9-0.2,1.4-0.4c0.4-0.2,0.9-0.4,1.3-0.7c0.4-0.3,0.7-0.6,1-0.9l0.4,0.2C163.7-55.4,163.5-55,163.4-54.6z"/>
				<path fill="#FFFFFF" d="M177.2-62c-0.7,0-1.4,0-2.1,0c-0.7,0-1.4,0-2.1,0c-0.7,0-1.4,0-2.1,0.1v1.6c0,1.6,0,2.9,0.1,4.2
					c0,1.2,0.1,2.4,0.2,3.6c-0.3,0-0.7-0.1-1-0.1c-0.4,0-0.8,0-1.2,0c-0.5,0-0.9,0-1.2,0c-0.4,0-0.7,0-1,0.1
					c0.1-1.2,0.1-2.4,0.2-3.6c0-1.2,0.1-2.6,0.1-4.2v-3.8c0-1.6,0-2.9-0.1-4.2c0-1.2-0.1-2.4-0.2-3.6c0.3,0,0.7,0.1,1,0.1
					c0.4,0,0.8,0,1.2,0c0.5,0,0.9,0,1.2,0c0.4,0,0.7-0.1,1-0.1c-0.1,1.2-0.2,2.4-0.2,3.6c0,1.2,0,2.6,0,4.1c0.5,0,1.1,0,1.7,0
					c0.7,0,1.5,0,2.5,0c1,0,1.8,0,2.4,0c0.6,0,1.2,0,1.7,0c0-1.6,0-2.9-0.1-4.1c0-1.2-0.1-2.4-0.2-3.6c0.3,0,0.7,0.1,1,0.1
					c0.4,0,0.8,0,1.2,0c0.5,0,0.9,0,1.2,0c0.4,0,0.7-0.1,1-0.1c-0.1,1.2-0.1,2.4-0.2,3.6c0,1.2-0.1,2.6-0.1,4.2v3.8
					c0,1.6,0,2.9,0.1,4.2c0,1.2,0.1,2.4,0.2,3.6c-0.3,0-0.7-0.1-1-0.1c-0.4,0-0.8,0-1.2,0c-0.5,0-0.9,0-1.2,0c-0.4,0-0.7,0-1,0.1
					c0.1-1.2,0.1-2.4,0.2-3.6c0-1.2,0.1-2.6,0.1-4.2v-1.6C178.6-61.9,177.9-62,177.2-62z"/>
				<path fill="#FFFFFF" d="M188.1-66.1c0.5-1.2,1.2-2.3,2.1-3.2c0.9-0.9,2-1.6,3.4-2.2c1.3-0.5,2.8-0.8,4.4-0.8
					c1.5,0,2.9,0.2,4.1,0.6c1.3,0.4,2.4,1,3.3,1.9c0.9,0.8,1.7,1.9,2.2,3.1c0.5,1.3,0.8,2.7,0.8,4.4c0,1.4-0.3,2.7-0.8,3.9
					c-0.5,1.2-1.3,2.3-2.2,3.2c-0.9,0.9-2,1.6-3.3,2.1c-1.3,0.5-2.7,0.8-4.3,0.8c-1.5,0-2.8-0.2-4.1-0.6c-1.3-0.4-2.4-1-3.4-1.8
					c-1-0.8-1.7-1.9-2.3-3.1c-0.6-1.3-0.8-2.8-0.8-4.5C187.4-63.6,187.6-64.9,188.1-66.1z M203.5-66.1c-0.3-1-0.7-1.8-1.2-2.5
					c-0.5-0.7-1.2-1.2-1.9-1.6c-0.7-0.4-1.6-0.5-2.5-0.5c-0.9,0-1.8,0.2-2.5,0.7c-0.7,0.5-1.4,1.1-1.9,1.9c-0.5,0.8-0.9,1.7-1.2,2.8
					c-0.3,1.1-0.4,2.2-0.4,3.4c0,1.5,0.2,2.8,0.5,3.8c0.3,1,0.7,1.9,1.3,2.5c0.5,0.6,1.2,1.1,1.9,1.4c0.7,0.3,1.4,0.4,2.2,0.4
					c0.8,0,1.6-0.2,2.4-0.5c0.8-0.4,1.4-0.9,2-1.6c0.6-0.7,1-1.7,1.4-2.8c0.3-1.1,0.5-2.5,0.5-4C204-64.1,203.8-65.2,203.5-66.1z"/>
				<path fill="#FFFFFF" d="M217.6-52.6c-1-0.3-1.9-0.7-2.7-1.3c-0.8-0.6-1.4-1.4-1.8-2.3c-0.4-0.9-0.7-2.1-0.7-3.4c0-0.8,0-1.4,0-2
					c0-0.6,0-1.1,0-1.6c0-0.5,0-1,0-1.5c0-0.5,0-1,0-1.5c0-1.5,0-2.7,0-3.7c0-0.9,0-1.6-0.1-2.1c0.4,0,0.7,0.1,1.1,0.1
					c0.4,0,0.8,0,1.1,0c0.4,0,0.7,0,1.1,0c0.4,0,0.8-0.1,1.1-0.1c-0.2,1.8-0.3,3.5-0.3,5.1c0,1.6-0.1,3.2-0.1,4.8
					c0,1.7,0.1,3.1,0.4,4.1c0.2,1.1,0.6,1.9,1.1,2.4c0.5,0.6,1,1,1.7,1.1c0.7,0.2,1.5,0.3,2.4,0.3c1.1,0,2-0.3,2.6-0.8
					c0.6-0.6,1.1-1.3,1.4-2.3c0.3-0.9,0.5-2,0.6-3.2c0.1-1.2,0.1-2.5,0.1-3.8c0-1.3,0-2.6-0.1-3.9c0-1.3-0.1-2.6-0.2-3.9
					c0.3,0,0.5,0.1,0.7,0.1c0.2,0,0.5,0,0.7,0c0.2,0,0.5,0,0.7,0c0.2,0,0.5-0.1,0.7-0.1c0,0.4-0.1,1-0.1,1.7c0,0.7-0.1,1.5-0.1,2.4
					c0,0.9-0.1,1.9-0.1,3c0,1.1,0,2.3,0,3.5c0,3.3-0.7,5.6-2.1,7c-1.4,1.4-3.4,2.1-6.1,2.1C219.8-52.2,218.7-52.4,217.6-52.6z"/>
				<path fill="#FFFFFF" d="M237.9-68.9c0-0.4,0-0.8-0.1-1c-0.3,0-0.6,0-1,0c-0.4,0-0.8,0-1.3,0.1c-0.5,0-0.9,0.1-1.4,0.1
					c-0.5,0-0.9,0.1-1.3,0.2c0-0.2,0.1-0.4,0.1-0.6c0-0.2,0-0.4,0-0.6c0-0.2,0-0.4,0-0.6c0-0.2-0.1-0.4-0.1-0.6c0.6,0,1.2,0,1.7,0.1
					c0.5,0,1,0,1.6,0c0.5,0,1.1,0,1.7,0c0.6,0,1.4,0,2.2,0c0.9,0,1.6,0,2.2,0c0.6,0,1.2,0,1.7,0c0.5,0,1,0,1.5,0c0.5,0,1,0,1.6-0.1
					c0,0.2-0.1,0.4-0.1,0.6c0,0.2,0,0.4,0,0.6c0,0.2,0,0.4,0,0.6c0,0.2,0.1,0.4,0.1,0.6c-0.4-0.1-0.8-0.1-1.2-0.2
					c-0.5,0-0.9-0.1-1.4-0.1c-0.5,0-0.9-0.1-1.3-0.1c-0.4,0-0.7,0-1,0c0,0.1,0,0.2,0,0.4c0,0.2,0,0.4,0,0.6v1.5v7
					c0,1.6,0,2.9,0.1,4.2c0,1.2,0.1,2.4,0.2,3.6c-0.3,0-0.7-0.1-1-0.1c-0.4,0-0.8,0-1.2,0c-0.5,0-0.9,0-1.2,0c-0.4,0-0.7,0-1,0.1
					c0.1-1.2,0.1-2.4,0.2-3.6c0-1.2,0.1-2.6,0.1-4.2v-7C237.9-67.9,237.9-68.4,237.9-68.9z"/>
				<path fill="#FFFFFF" d="M250.8-68.3c0-1.2-0.1-2.4-0.1-3.6c0.8,0,1.7,0,2.5,0.1c0.8,0,1.6,0.1,2.5,0.1c1.4,0,2.6,0,3.6,0
					c1.1,0,1.8-0.1,2.1-0.1c-0.1,0.3-0.1,0.7-0.1,1.2c0,0.3,0,0.5,0,0.7c0,0.2,0,0.4,0.1,0.6c-0.5,0-1.1-0.1-1.8-0.1
					c-0.6,0-1.3-0.1-1.9-0.1c-0.6,0-1.1-0.1-1.6-0.1c-0.5,0-0.8,0-1,0c-0.1,1-0.1,2.1-0.1,3.1c0,1,0,2,0,3.1c1.2,0,2.3,0,3.3-0.1
					c1,0,2-0.1,3-0.1c-0.1,0.3-0.1,0.6-0.1,0.7c0,0.2,0,0.3,0,0.5c0,0.2,0,0.3,0,0.5c0,0.2,0.1,0.4,0.1,0.7
					c-2.1-0.2-4.2-0.3-6.3-0.3c0,0.6,0,1.2,0,1.8c0,0.6,0,1.2,0,1.8c0,1.2,0,2.4,0.1,3.5c1.1,0,2.1,0,3.2-0.1c1-0.1,2.1-0.1,3.2-0.3
					c0,0.2-0.1,0.4-0.1,0.6c0,0.2,0,0.4,0,0.7c0,0.3,0,0.5,0,0.7c0,0.2,0,0.3,0.1,0.4c-0.5,0-1.1,0-1.8,0c-0.7,0-1.7,0-3,0
					c-1.1,0-2,0-2.7,0c-0.7,0-1.2,0-1.6,0c-0.4,0-0.7,0-0.9,0c-0.2,0-0.4,0-0.5,0c0.1-1.2,0.1-2.4,0.1-3.6c0-1.2,0-2.6,0-4.2v-3.8
					C250.8-65.7,250.8-67.1,250.8-68.3z"/>
				<path fill="#FFFFFF" d="M266-69.6c0-0.9-0.1-1.7-0.1-2.3c0.5,0.1,0.9,0.1,1.2,0.1c0.3,0,0.7,0,1.2-0.1c2,2.3,4,4.5,6,6.7
					c2,2.2,4,4.4,6.1,6.7V-61v-2.7c0-0.9,0-1.8,0-2.7c0-0.9,0-1.7,0-2.5c0-0.8,0-1.4-0.1-1.9c0-0.5-0.1-0.9-0.1-1.1
					c0.5,0.1,0.9,0.1,1.2,0.1c0.3,0,0.7,0,1.2-0.1c-0.1,1.7-0.2,3.3-0.2,4.6c-0.1,1.4-0.1,2.7-0.1,3.9c0,1.2-0.1,2.4-0.1,3.6
					c0,1.2,0,2.5,0,3.8v3.4c-0.4,0-0.7-0.1-1.1-0.1c-0.4,0-0.8,0-1.1,0.1c-3.8-4.5-7.8-9-12.1-13.6c0,0.5,0,1.1,0,1.6
					c0,0.5,0,1.1,0,1.7v3.3c0,1.1,0,2.1,0,2.9c0,0.8,0,1.5,0,2c0,0.5,0,1,0.1,1.3c0,0.3,0,0.6,0.1,0.8c-0.2,0-0.4-0.1-0.7-0.1
					c-0.2,0-0.4,0-0.6,0c-0.4,0-0.8,0-1.3,0.1c0-0.2,0.1-0.7,0.1-1.6c0.1-0.9,0.1-2,0.2-3.4c0.1-1.3,0.1-2.8,0.2-4.3
					c0-1.5,0.1-3,0.1-4.5C266-67.6,266-68.7,266-69.6z"/>
			</g>
		</g>
		<g>
			<linearGradient id="SVGID_3_" gradientUnits="userSpaceOnUse" x1="226.7038" y1="-81.0708" x2="238.652" y2="-94.4247">
				<stop  offset="0" style="stop-color:#0094CC"/>
				<stop  offset="1" style="stop-color:#21A1DB"/>
			</linearGradient>
			<polyline fill-rule="evenodd" clip-rule="evenodd" fill="url(#SVGID_3_)" points="233.6,-103.5 248.6,-90.8 222.6,-74.6 
				233.6,-103.5 			"/>
			<g>
				<polygon fill="none" stroke="#FFFFFF" stroke-width="3.1164" points="233.6,-103.5 248.6,-90.8 222.6,-74.6 233.6,-103.5 				
					"/>
			</g>
		</g>
	</g>
	<g>
		<path fill="#244A95" d="M159.4-34.1l4-5.1h-3.9v-1.4h5.9v1.3l-4.1,5.1h4.1v1.4h-6.1V-34.1z"/>
		<path fill="#244A95" d="M176.8-39.2h-4.1v1.7h3.8v1.4h-3.8v2h4.3v1.4H171v-7.8h5.8V-39.2z"/>
		<path fill="#244A95" d="M182.7-40.6h1.6v3.2l3-3.2h2.1l-3.2,3.2l3.4,4.6h-2.1l-2.4-3.4l-0.8,0.8v2.6h-1.6V-40.6z"/>
		<path fill="#244A95" d="M200.6-39.2h-4.1v1.7h3.8v1.4h-3.8v2h4.3v1.4h-5.9v-7.8h5.8V-39.2z"/>
		<path fill="#244A95" d="M211.5-40.4c0.3,0.1,0.5,0.3,0.7,0.5c0.2,0.2,0.3,0.4,0.4,0.7c0.1,0.2,0.1,0.5,0.1,0.8
			c0,0.4-0.1,0.7-0.3,1.1c-0.2,0.4-0.5,0.6-0.9,0.8c0.4,0.1,0.6,0.4,0.8,0.6c0.2,0.3,0.2,0.7,0.2,1.2v0.5c0,0.4,0,0.6,0,0.7
			c0,0.2,0.1,0.4,0.3,0.4v0.2h-1.8c0-0.2-0.1-0.3-0.1-0.4c0-0.2-0.1-0.4-0.1-0.7l0-0.7c0-0.5-0.1-0.8-0.3-1
			c-0.2-0.2-0.5-0.3-0.9-0.3h-1.6v3.1h-1.6v-7.8h3.8C210.8-40.6,211.2-40.5,211.5-40.4z M208.1-39.2v2.1h1.8c0.3,0,0.6,0,0.8-0.1
			c0.3-0.1,0.5-0.4,0.5-0.9c0-0.5-0.2-0.8-0.5-1c-0.2-0.1-0.4-0.1-0.8-0.1H208.1z"/>
		<path fill="#244A95" d="M218.7-32.8v-7.8h1.6v3h3v-3h1.6v7.8h-1.6v-3.5h-3v3.5H218.7z"/>
		<path fill="#244A95" d="M236.7-39.2h-4.2v1.7h3.8v1.4h-3.8v2h4.3v1.4H231v-7.8h5.8V-39.2z"/>
		<path fill="#244A95" d="M244-32.8h-1.6v-7.8h1.6V-32.8z"/>
		<path fill="#244A95" d="M254.5-40.4c0.6,0.2,1,0.5,1.3,1c0.3,0.4,0.5,0.8,0.6,1.3c0.1,0.5,0.1,0.9,0.1,1.3c0,1-0.2,1.9-0.6,2.6
			c-0.6,1-1.4,1.5-2.6,1.5h-3.4v-7.8h3.4C253.8-40.6,254.2-40.5,254.5-40.4z M251.5-39.2v5.1h1.5c0.8,0,1.3-0.4,1.6-1.1
			c0.2-0.4,0.3-0.9,0.3-1.5c0-0.8-0.1-1.4-0.4-1.8c-0.3-0.4-0.7-0.6-1.5-0.6H251.5z"/>
	</g>
</g>
</svg>
