<?xml version="1.0" encoding="utf-8"?>
<!-- Generator: Adobe Illustrator 12.0.0, SVG Export Plug-In . SVG Version: 6.00 Build 51448)  -->
<!DOCTYPE svg PUBLIC "-//W3C//DTD SVG 1.1//EN" "http://www.w3.org/Graphics/SVG/1.1/DTD/svg11.dtd" [
	<!ENTITY ns_svg "http://www.w3.org/2000/svg">
	<!ENTITY ns_xlink "http://www.w3.org/1999/xlink">
]>
<svg  version="1.1" id="Layer_1" xmlns="&ns_svg;" xmlns:xlink="&ns_xlink;" width="145" height="25" viewBox="36.038 5.969 145 25"
	 overflow="visible" enable-background="new 36.038 5.969 145 25" xml:space="preserve">
<g>
	<polygon fill="#00A98F" points="49.985,7.833 54.999,7.833 54.999,30.298 49.985,30.298 49.985,21.458 41.051,21.458 
		41.051,30.298 36.038,30.298 36.038,7.833 41.051,7.833 41.051,17.217 49.985,17.217 	"/>
	<path fill="#00A98F" d="M72.592,15.304c-1.736-1.724-3.915-2.586-6.54-2.586c-2.625,0-4.805,0.862-6.54,2.586
		c-1.736,1.725-2.603,3.84-2.603,6.347s0.867,4.618,2.603,6.331s3.915,2.57,6.54,2.57c2.625,0,4.804-0.857,6.54-2.57
		s2.603-3.824,2.603-6.331S74.328,17.031,72.592,15.304z M69.138,25.106c-0.804,0.89-1.833,1.334-3.086,1.334
		s-2.282-0.444-3.085-1.334c-0.804-0.889-1.205-2.04-1.205-3.453c0-1.414,0.401-2.571,1.205-3.473c0.803-0.9,1.832-1.35,3.085-1.35
		s2.282,0.45,3.086,1.35c0.803,0.901,1.204,2.057,1.204,3.473C70.342,23.066,69.94,24.218,69.138,25.106z"/>
	<path fill="#00A98F" d="M88.529,13.005c0.143-0.112,0.292-0.215,0.444-0.315h-6.219v-0.679c0-0.685,0.161-1.206,0.482-1.558
		c0.321-0.354,0.728-0.531,1.221-0.531c0.857,0,1.64,0.408,2.346,1.221l1.735-3.245c-1.392-1.286-2.939-1.929-4.644-1.929
		c-1.705,0-3.129,0.552-4.274,1.655c-1.147,1.104-1.719,2.598-1.719,4.482v0.583h-2.025v3.949h2.025v13.659h4.853V16.638h3.861
		C86.686,15.167,87.319,13.953,88.529,13.005z"/>
	<path fill="#00A98F" d="M129.401,14.293c-1.33-1.05-3.044-1.575-5.144-1.575c-2.913,0-5.506,0.825-7.776,2.475l2.153,3.119
		c0.643-0.493,1.431-0.906,2.362-1.239c0.932-0.331,1.816-0.498,2.652-0.498c1.948,0,2.925,0.921,2.925,2.765v0.096h-3.602
		c-2.227,0-3.984,0.44-5.27,1.317c-1.285,0.879-1.928,2.201-1.928,3.97c0,1.768,0.621,3.181,1.864,4.242
		c1.242,1.061,2.779,1.591,4.611,1.591c1.831,0,3.368-0.781,4.61-2.347v2.09h4.531V19.274
		C131.392,17.004,130.728,15.343,129.401,14.293z M126.54,23.71c0,0.877-0.326,1.58-0.98,2.104
		c-0.654,0.526-1.408,0.788-2.266,0.788s-1.516-0.165-1.977-0.498c-0.461-0.332-0.69-0.81-0.69-1.431
		c0-1.199,0.964-1.799,2.892-1.799h3.021V23.71L126.54,23.71z"/>
	<path fill="#00A98F" d="M150.712,20.784c0-2.507-0.829-4.478-2.49-5.913c-1.661-1.436-3.679-2.153-6.058-2.153
		c-2.376,0-4.439,0.804-6.185,2.41c-1.747,1.607-2.621,3.77-2.621,6.492c0,2.721,0.857,4.89,2.572,6.507
		c1.714,1.618,3.882,2.428,6.508,2.428c2.622,0,4.912-0.921,6.861-2.765l-2.7-2.925c-1.095,1.137-2.486,1.704-4.179,1.704
		c-1.049,0-1.991-0.3-2.827-0.899c-0.836-0.601-1.329-1.371-1.479-2.313h12.597V20.784z M138.245,19.916
		c0.128-0.984,0.589-1.767,1.382-2.345c0.793-0.578,1.664-0.869,2.617-0.869c0.954,0,1.763,0.279,2.428,0.836
		c0.665,0.557,1.05,1.349,1.157,2.377H138.245z"/>
	<path fill="#00A98F" d="M180.913,20.784c0-2.507-0.832-4.478-2.49-5.913c-1.661-1.436-3.681-2.153-6.058-2.153
		s-4.44,0.804-6.188,2.41c-1.746,1.607-2.617,3.77-2.617,6.492c0,2.721,0.856,4.89,2.572,6.507c1.711,1.618,3.882,2.428,6.504,2.428
		c2.627,0,4.913-0.921,6.862-2.765l-2.699-2.925c-1.092,1.137-2.484,1.704-4.176,1.704c-1.05,0-1.992-0.3-2.83-0.899
		c-0.835-0.601-1.327-1.371-1.478-2.313h12.598V20.784L180.913,20.784z M168.443,19.916c0.13-0.984,0.588-1.767,1.381-2.345
		c0.795-0.578,1.667-0.869,2.619-0.869c0.954,0,1.764,0.279,2.429,0.836c0.662,0.557,1.047,1.349,1.154,2.377H168.443z"/>
	<path fill="#00A98F" d="M162.036,25.422c-0.571,0.615-1.247,0.922-2.028,0.922c-0.472,0-0.877-0.188-1.22-0.563
		c-0.345-0.373-0.515-0.894-0.515-1.557v-7.746h4.176v-3.759h-4.176V7.833h-4.853v4.885h-2.026v3.759h2.026v7.971
		c0,1.885,0.572,3.375,1.717,4.467c1.146,1.092,2.551,1.64,4.212,1.64c1.66,0,3.239-0.686,4.739-2.058l-0.212-0.397
		C163.072,27.331,162.46,26.437,162.036,25.422z"/>
	<path fill="#00A98F" d="M87.346,27.93l1.974-3.196c1.257,1.186,3.842,2.37,5.996,2.37c1.975,0,2.908-0.79,2.908-1.866
		c0-2.872-10.303-0.539-10.303-7.36c0-2.909,2.549-5.458,7.108-5.458c2.944,0,5.278,1.006,7.001,2.37l-1.831,3.124
		c-1.042-1.114-3.017-2.011-5.134-2.011c-1.652,0-2.728,0.754-2.728,1.723c0,2.586,10.268,0.432,10.268,7.432
		c0,3.16-2.693,5.564-7.503,5.564C92.085,30.622,89.177,29.616,87.346,27.93z"/>
	<path fill="#00A98F" d="M113.977,25.43c-0.57,0.606-1.242,0.913-2.021,0.913c-0.472,0-0.879-0.188-1.222-0.563
		c-0.343-0.373-0.514-0.894-0.514-1.557v-7.746h4.177v-3.759h-4.177V7.833h-4.853v4.885h-2.025v3.759h2.025v7.971
		c0,1.885,0.572,3.375,1.719,4.467c1.146,1.092,2.549,1.64,4.21,1.64c1.52,0,2.68-0.407,4.064-1.557
		C114.362,27.774,114.117,26.8,113.977,25.43z"/>
</g>
</svg>
