<?xml version="1.0" encoding="iso-8859-1"?>
<!-- Generator: Adobe Illustrator 19.0.0, SVG Export Plug-In . SVG Version: 6.00 Build 0)  -->
<svg version="1.1" id="Layer_1" xmlns="http://www.w3.org/2000/svg" xmlns:xlink="http://www.w3.org/1999/xlink" x="0px" y="0px"
	 viewBox="0 0 217.075 36.939" style="enable-background:new 0 0 217.075 36.939;" xml:space="preserve">
<g>
	<polygon style="fill:#00A98F;" points="20.898,2.793 28.41,2.793 28.41,36.452 20.898,36.452 20.898,23.209 7.512,23.209 
		7.512,36.452 0,36.452 0,2.793 7.512,2.793 7.512,16.854 20.898,16.854 	"/>
	<path style="fill:#00A98F;" d="M54.772,13.988c-2.601-2.583-5.867-3.876-9.799-3.876c-3.933,0-7.199,1.292-9.799,3.876
		c-2.601,2.584-3.9,5.754-3.9,9.51s1.3,6.918,3.9,9.486c2.6,2.568,5.866,3.852,9.799,3.852c3.932,0,7.199-1.284,9.799-3.852
		c2.6-2.568,3.9-5.73,3.9-9.486S57.372,16.573,54.772,13.988z M49.595,28.675c-1.204,1.333-2.745,1.999-4.623,1.999
		s-3.419-0.666-4.623-1.999c-1.204-1.332-1.806-3.058-1.806-5.176s0.602-3.852,1.806-5.201c1.204-1.348,2.745-2.022,4.623-2.022
		s3.419,0.674,4.623,2.022c1.204,1.349,1.806,3.082,1.806,5.201S50.799,27.343,49.595,28.675z"/>
	<path style="fill:#00A98F;" d="M78.652,10.542c0.214-0.167,0.437-0.322,0.665-0.471h-9.318V9.053c0-1.027,0.241-1.806,0.722-2.335
		c0.482-0.53,1.091-0.794,1.83-0.794c1.284,0,2.456,0.61,3.515,1.83l2.6-4.863C76.58,0.963,74.261,0,71.708,0
		s-4.688,0.827-6.404,2.48c-1.718,1.654-2.576,3.893-2.576,6.717v0.874h-3.034v5.916h3.034v20.465h7.271V15.987h5.785
		C75.889,13.782,76.838,11.964,78.652,10.542z"/>
	<path style="fill:#00A98F;" d="M139.89,12.472c-1.99-1.573-4.559-2.359-7.705-2.359c-4.365,0-8.25,1.236-11.652,3.708l3.227,4.671
		c0.963-0.738,2.143-1.356,3.539-1.854c1.396-0.497,2.721-0.746,3.973-0.746c2.92,0,4.383,1.38,4.383,4.141v0.145h-5.395
		c-3.338,0-5.971,0.658-7.896,1.974c-1.926,1.316-2.889,3.298-2.889,5.947s0.931,4.767,2.793,6.356
		c1.861,1.589,4.164,2.384,6.91,2.384c2.744,0,5.047-1.171,6.908-3.515v3.13h6.791V19.935
		C142.876,16.533,141.88,14.045,139.89,12.472z M135.605,26.581c0,1.316-0.49,2.368-1.469,3.154c-0.98,0.787-2.111,1.18-3.395,1.18
		c-1.285,0-2.271-0.248-2.961-0.747c-0.691-0.497-1.035-1.211-1.035-2.143c0-1.797,1.443-2.696,4.332-2.696h4.527V26.581z"/>
	<path style="fill:#00A98F;" d="M171.826,22.198c0-3.756-1.244-6.709-3.731-8.86c-2.488-2.15-5.514-3.226-9.077-3.226
		s-6.653,1.204-9.27,3.611s-3.924,5.65-3.924,9.727c0,4.078,1.283,7.328,3.852,9.751c2.568,2.424,5.818,3.636,9.751,3.636
		s7.359-1.38,10.281-4.141l-4.045-4.382c-1.638,1.702-3.725,2.552-6.26,2.552c-1.573,0-2.985-0.449-4.238-1.348
		c-1.252-0.898-1.99-2.054-2.215-3.467h18.876V22.198z M153.143,20.898c0.192-1.476,0.882-2.648,2.07-3.515
		c1.188-0.867,2.495-1.3,3.924-1.3s2.641,0.417,3.636,1.252c0.995,0.835,1.572,2.022,1.733,3.563H153.143z"/>
	<path style="fill:#00A98F;" d="M217.075,22.198c0-3.756-1.244-6.709-3.731-8.86c-2.488-2.15-5.514-3.226-9.077-3.226
		s-6.653,1.204-9.27,3.611s-3.924,5.65-3.924,9.727c0,4.078,1.283,7.328,3.852,9.751c2.568,2.424,5.818,3.636,9.751,3.636
		s7.359-1.38,10.281-4.141l-4.045-4.382c-1.638,1.702-3.725,2.552-6.26,2.552c-1.573,0-2.985-0.449-4.238-1.348
		c-1.252-0.898-1.99-2.054-2.215-3.467h18.876V22.198z M198.392,20.898c0.192-1.476,0.882-2.648,2.07-3.515
		c1.188-0.867,2.495-1.3,3.924-1.3s2.641,0.417,3.636,1.252c0.995,0.835,1.572,2.022,1.733,3.563H198.392z"/>
	<path style="fill:#00A98F;" d="M188.794,29.147c-0.857,0.921-1.87,1.382-3.041,1.382c-0.707,0-1.317-0.281-1.83-0.843
		c-0.514-0.561-0.771-1.34-0.771-2.335V15.746h6.26v-5.633h-6.26v-7.32h-7.271v7.32h-3.034v5.633h3.034v11.942
		c0,2.825,0.858,5.056,2.576,6.693c1.717,1.637,3.819,2.456,6.308,2.456c2.487,0,4.855-1.027,7.103-3.082l-0.318-0.596
		C190.342,32.008,189.427,30.668,188.794,29.147z"/>
	<path style="fill:#00A98F;" d="M76.878,32.905l2.959-4.788c1.883,1.776,5.756,3.551,8.983,3.551c2.959,0,4.357-1.183,4.357-2.797
		c0-4.304-15.439-0.807-15.439-11.028c0-4.357,3.82-8.177,10.651-8.177c4.411,0,7.908,1.507,10.49,3.551l-2.743,4.68
		c-1.56-1.668-4.519-3.012-7.692-3.012c-2.475,0-4.088,1.129-4.088,2.582c0,3.873,15.385,0.646,15.385,11.135
		c0,4.734-4.034,8.338-11.243,8.338C83.979,36.939,79.622,35.432,76.878,32.905z"/>
	<path style="fill:#00A98F;" d="M116.781,29.159c-0.854,0.911-1.862,1.37-3.027,1.37c-0.707,0-1.317-0.281-1.83-0.843
		c-0.514-0.561-0.771-1.34-0.771-2.335V15.746h6.26v-5.633h-6.26v-7.32h-7.271v7.32h-3.034v5.633h3.034v11.942
		c0,2.825,0.858,5.056,2.576,6.693c1.717,1.637,3.819,2.456,6.308,2.456c2.277,0,4.015-0.609,6.091-2.332
		C117.357,32.672,116.991,31.211,116.781,29.159z"/>
</g>
</svg>
