<svg version="1" xmlns="http://www.w3.org/2000/svg" viewBox="0 0 71 58"><path class="st0" fill="#C5281C" d="M14 50.9c1.8 0 1.9-2.3 1.9-2.3h.4V54H16c-.2-1.8-.8-2.4-1.9-2.5h-.6v5.2h1.1c2.4 0 3.2-.5 3.6-3.8h.4v4.4H10v-.6h1.6V46.1h-1.4v-.6h8.3v4.2h-.3c-.5-3.7-1.7-3.6-4.7-3.6V51h.5zm-3.9.2H5.4v.5H7v3.9c-.3 1-1.7 1.4-2.1 1.4-3 0-2.8-4.4-2.8-5.6 0-1.1-.1-5.6 2.8-5.6 2 0 3.1 2 3.5 3.9h.3v-4.3l-1.4 1s-.6-1-2.5-1c-3.5 0-4.8 3.5-4.8 6 0 2.3 1.1 6.1 4.8 6.1 1.2 0 2-.6 2.5-1.3l1.5 1.2v-5.7h1.3v-.5zm44.5 2L52.8 48l-1.7 5.1h3.5zM44.4 51c1.5 0 2-1.3 2-2.6 0-.5-.1-2.2-1.5-2.4h-2.5v5h2m21 2v4.4H54.6v-.6H56l-1.2-3.2h-3.9s-.7 1.9-.7 2.5c.1.7 1.1.7 1.3.7v.6h-2.9c-4.6 0-.5-5.4-4-5.7h-2v5.2H44v.6h-4.9v-.6h1.5V46h-1.5v-.6H45c2.1.1 3.3 1 3.3 2.8 0 2.6-2.7 3.1-2.7 3.1s1 .1 1.7.7c.6.6.6 1.8.6 2.3v2c0 .1 0 .4.5.4.6-.1.9-1.1.9-1 0 0 3.7-10.6 3.6-10.6h.6L58 56.8h1.2V46h-1.5v-.6h4.9v.6h-1.5v10.7h.1c2.4 0 3.2-.5 3.6-3.8h.6zm-32.1-7c3.1 0 4.2-.1 4.7 3.6h.3v-4.2H26.2v.6h.3c.4 0 1.4 0 1.5.9v6.8l-5.7-8.3h-3.1v.6h.5c.6 0 1.5 0 1.5.9v8.8c0 .9-1.3 1.2-1.8 1.2v.4h4.2v-.4c-.5 0-1.8-.3-1.8-1.2V48c2.2 3.2 6.5 9.3 6.5 9.3h.2V47c.1-.9 1.1-.9 1.5-.9h1.4v10.7h-1.6v.6h8.6V53H38c-.4 3.3-1.3 3.8-3.6 3.8h-1.1v-5.2h.6c1.1 0 1.7.6 1.9 2.5h.4v-5.4h-.4s-.1 2.3-1.9 2.3h-.6v-5zm37.4 0v-.6h-4.8v.6h1.5v10.7h-1.5v.6h4.8v-.6h-1.5V46h1.5zM53.5 35.6c-.3.7 0 1.6.6 2.4l4.8-1.8c.3-.1 1.2-.5 1.4-.8.1-.1.1-.2 0-.7v-9.4c-.4-.8-.7-1.6-1.1-2.3-5.7-.6-7.2-1.2-10.2-6-.6 0-1.2-.1-1.8-.1-.3 0-.7 0-1.1-.1-.8 0-2.2-.2-3.8-.3-1.3-.1-2.6-.2-3.5-.3-.6.6-1.4 1-2.3 1-.7 0-1.3-.2-2.3-.6l-.6-.3 1.1-1 .6.3c.5.2.8.3 1.1.3 1 0 1.8-.8 1.8-1.7 0-.6-.1-.8-.2-.9h-4.9l.7-1.5h4.6c1.9 0 3.2-.7 4.1-2.1h-7.6l.7-1.5h8.5c1.9 0 3.3-.7 4.2-2.2H36.8l.7-1.5h13.1c1.8 0 3.1-.6 4-1.9H33c-1.7 0-3.1 1.1-3.7 2.8L28.1 10c-.3 1.2-.7 2.5-.9 3.2.9.5 1.8 1.4 1.8 3.2 0 1.8-1.2 3.2-2.6 3.9.3.5.5 1.1.5 1.7 0 1.6-1.2 2.9-2.7 3.1-.2.6-.4 1.1-.7 1.5v6.3c0 .9-.8 1.7-1.7 1.7h-.2c-.4 0-1.3.1-1.7.7-.4.5-.4 1.4 0 2.6.9.2 2.2 0 2.9-.9l.2-.3h.4c1 0 2.2 0 2.6-.4.1-.1.2-.3.2-1 0-.1 0-.8.8-1.4-.9-2.3 0-5.8.1-6.2l.1-.6h.6c3.2.1 5.1-.5 7.3-1.2.5-.2 1.1-.4 1.7-.5.2-.1 2.7-.9 4.7-.9.2 0 2 0 3.8 1.2l.1.1c1.7 1.1 3.3 2.1 10.3 2.7 1.8.1 2.1 1.5 2.2 2v.1l.4 3.5-3.9.9c-.5 0-.8.2-.9.6m-1 2.5c-.6-1.1-.7-2.1-.3-3.1.3-.8 1-1.4 1.9-1.6l2.6-.6-.2-2.2c-.1-.5-.3-.8-.9-.8-5-.4-7.5-1.1-9.1-1.8a28 28 0 0 1 1.3 2.8c.3 1 .1 2-.7 2.9L43 38h9.5m-11.6.1l5-5.3c.7-.7.5-1.2.4-1.4-.2-.6-.9-2-1.4-3.1-.3-.6-.6-1.1-.8-1.6-1.3-.7-2.7-.7-2.7-.7-.4 0-.8 0-1.3.1l2.6 4.3c1 1.5 0 2.7-.3 3.1l-2 2.1h-.5l-2.8-.5c-.5-.1-1.2.1-1.6.6-.5.5-.6 1.4-.3 2.4h5.7zm-6.4-3.3c.7-.8 1.9-1.3 3-1.1l2.4.4 1.5-1.6c.5-.6.5-.9.2-1.3l-2.9-4.8c-.8.2-1.4.4-1.4.4-.6.2-1.1.4-1.7.5-2.1.7-4 1.3-7.1 1.3h-.1c-.3 1.4-.6 4 .1 5.2l.5.7-.8.4c-.4.2-.5.4-.6.5 0 .6 0 1.4-.6 2-.5.5-1.2.7-2.2.8h9c-.4-1.8.1-2.8.7-3.4m-16-.3c.6-.8 1.7-1.3 3-1.3h.2c.1 0 .2-.1.2-.2v-5c-.7.4-1.7.6-3 .6H18l.1-.9c0-.1 0-.3.1-.4.1-.5.2-1 .2-1.5-.5.2-1.1.4-1.7.5v11.8h1.5c-.4-1.5-.3-2.7.3-3.6m-3.2-10l-6.9-1.8-6.9 1.8v12.4l6.9-1.8 6.9 1.8V24.5zm-.9 13.6l-6-1.6-6 1.6h12zM4.8 19.9c-.2.3 0 1.4.6 2l3-.8 8.4 2.2v1.5c.8-.2 1.5-.5 1.9-.9l1.2-1.2.1 1.7v.8c0 .7-.1 1.3-.2 1.8 1.9-.2 2.5-1.1 3.1-2.8l.2-.5h.6c1 0 1.8-.8 1.8-1.7 0-.6-.3-1.1-.8-1.4l-1.5-1 1.8-.3c1.3-.2 2.6-1.4 2.6-2.9 0-1.3-.6-1.7-1.6-2.3l-.5-.3.2-.6c.2-.6.7-2 1-3.3l.1-.3c.2-.8.3-1.6.2-2.1-.2-1.9-1.1-3.6-2.4-4.6 0 1.4-.7 2.9-1.9 3.8l.4 2.3H22c-.6 0-1 .3-1 .6 0 .2.1.5.1.9.1.5.2 1.2.3 1.9v.1c0 2.6-2.8 4.2-5.5 4.2-.2 0-.6 0-1.1-.1L13 19.5c.1.1.2.4.3.5.1.1.1.1.1.2 0 0 0 .1.1.1.1.1.3.4.3.6v.1c-.3.4-.6.9-.9 1.3 0 0-.4-.7-.4-.8 0 0-.1-.1-.1-.2-.1-.1-.1-.2-.2-.3-.3-.4-.5-.8-.9-1.2-.9-1-2-1.6-2.9-1.6-.3 0-.6.1-.8.2-.1.1-.2.2-.2.4l-.2.6-.6-.1c-.9-.2-1.5.2-1.8.6m9-5.3c0 .1 0 .2.1.2.3.2 1.6.3 1.7.4h.1c2 .1 4.4-1.1 4.4-2.8 0-.6-.1-1.2-.2-1.7s-.2-.8-.2-1.1c0-.9.7-1.7 1.6-1.9L21 6.1l.4-.3c1.1-.6 1.8-2 1.6-3.1v-.1l-3.7 2.3H19c-.4 0-.7-.1-1-.1-1.7 0-2.6.6-2.7.9l-.1.2c-.5 1.6 1.3.9 1.7 1.2.4.3-.3 1-.3 1-.2.2-.3.4-.6.4s-.5-.2-.5-.4c0-.3-.3-.6-.6-.6s-.5.2-.7.4c-.3.5-.7.9-1 1.3l-.1.2c0 .1.3.3.4.4l.7.5-.8 1.1v.1c0 .1.2.2.4.2.3 0 .7-.3 1.1-.6.7-.5 1.4-.9 2-.9 1.1 0 1.9 1.1 1.9 2.1-.2 1.6-1.7 2.2-3.3 2.3h-1.3c-.3-.2-.3-.1-.4 0m3.1-11.5l-.1.1c.4-.1.8-.1 1.2-.1h.9l2.6-1.6c-.8-.2-1.7-.1-2.4.1-.4.1-.9.3-1.3.6-.3.3-.7.6-.9.9m39.4-.4c-.4.8-.9 1.4-1.5 1.9H62c1.8 0 3.1-.6 4-1.9h-9.7m-.4 5.6c1.9 0 3.3-.7 4.2-2.2h-9.8c-.4.9-1 1.6-1.6 2.2h7.2m-5.8 3.5c1.9 0 3.2-.7 4.1-2.1h-9.8c-.4.8-.9 1.5-1.6 2.1h7.3m1.7 5.5c-.3-.1-.6-.1-.9-.1 2.1 3.3 3.5 3.8 7.3 4.3-.3-.4-.6-.8-.9-1.1-1.4-1.7-3.2-2.7-5.5-3.1m15.3 15.8c-.3-.5-1.2-.7-1.9-.4.8 1.2 1.6 1.8 2.7 1.9-.2-.3-.3-.5-.4-.8-.1-.2-.3-.4-.4-.7m3.8 5v3.7H0V23.4l3.9-1c-.7-1.1-.8-2.4-.3-3.2.4-.8 1.4-1.4 2.6-1.4.1-.2.2-.3.4-.4.5-.4 1.1-.7 1.8-.6 1.1 0 2.4.6 3.5 1.7l1.5-2.5-.4-.3v-.2c-.2-.2-.4-.4-.4-.9s.5-1 1.5-1.1l1.4-.2c.7-.1 1.7-.5 1.7-1.2 0-.3-.3-.5-.5-.5s-.9.5-1.2.6c-.6.4-1.2.8-2 .8-1 0-1.8-.7-1.8-1.6 0-.3.1-.6.2-.8-.2-.2-.4-.5-.5-.9-.1-.3 0-.9.4-1.4.5-.6 1.1-1.4 1.6-2.5l.6-1.1c.1-.2.3-.3.5-.5.3-.7.8-1.4 1.2-1.9.4-.5 1-1 1.4-1.2.5-.3 1.1-.6 1.7-.8 1.8-.5 4-.1 6 1.1 1.4.8 2.5 2.3 3.1 4v-.1c.7-2.4 2.7-3.9 5.1-3.9h35.5l-.5 1c-1.1 2.5-3.1 3.8-5.9 3.8h-.4c-1.1 2.4-3.1 3.6-5.8 3.6-1.2 2.4-3.1 3.5-5.8 3.5H39.6c.1.3.1.5.1.9 0 .2 0 .5-.1.7.8.1 1.8.1 2.8.2 1.5.1 3 .2 3.7.3.4 0 .7 0 1.1.1 1.6.1 2.9.1 4.7.4 2.6.4 4.8 1.6 6.4 3.6.6.7 1.2 1.5 1.7 2.4.6 1 1.1 2.1 1.6 3.2v.1c.1.3.3.6.4.9l.2.4c.8 2.1 1.4 3.7 2.1 5 1.4-.6 3.2-.2 3.9 1 .2.2.3.5.4.7.3.5.6 1 1.1 1.6l.8.9-1.2.3h-1.2c-3.1 0-4.7-2.9-6.3-7v5.7c.1 1.4-.2 2-2.3 2.8l-1.5.6h12.9zM13.8 26.4l-4.6-1.2v1.5l4.6 1.2v-1.5zM3 27.9l4.6-1.2v-1.5L3 26.4v1.5zM3 31l4.6-1.2v-1.5L3 29.4V31zm10.8-1.6l-4.6-1.2v1.5l4.6 1.2v-1.5zm0 3.1l-4.6-1.2v1.5l4.6 1.2v-1.5zM3 34l4.6-1.2v-1.5L3 32.5V34z"/></svg>